<svg width="84" height="84" viewBox="0 0 84 84" fill="none" xmlns="http://www.w3.org/2000/svg">
    <path d="M28.0445 29.164C28.5284 29.8075 29.2666 30.1465 30.0139 30.1465C30.5292 30.1465 31.0489 29.985 31.4917 29.6517C32.5787 28.8346 32.7972 27.2908 31.9801 26.2045C30.3536 24.041 29.4576 21.3596 29.4576 18.6532C29.4576 15.7584 30.4683 12.9302 32.3031 10.691C33.1644 9.63938 33.0106 8.08784 31.9589 7.22587C30.9073 6.36455 29.3557 6.51836 28.4938 7.57002C25.9399 10.6872 24.5332 14.6234 24.5332 18.6532C24.5332 22.4208 25.7803 26.1533 28.0445 29.164Z"
          fill="white"/>
    <path d="M22.7842 36.7543C23.3302 36.7543 23.8794 36.5736 24.3357 36.2025C25.3912 35.345 25.5508 33.7941 24.6933 32.7393C21.4665 28.7704 19.69 23.7678 19.69 18.653C19.69 13.3018 21.6146 8.12292 25.1099 4.07007C25.9975 3.04084 25.8827 1.48609 24.8529 0.597852C23.8236 -0.289749 22.2689 -0.175034 21.3807 0.854199C17.115 5.80041 14.7656 12.1219 14.7656 18.6537C14.7656 24.8957 16.9343 31.0012 20.8724 35.8456C21.3589 36.4441 22.0683 36.7543 22.7842 36.7543Z"
          fill="white"/>
    <path d="M54.59 18.6532C54.59 21.3596 53.6948 24.0416 52.0676 26.2045C51.2505 27.2914 51.469 28.8346 52.5559 29.6517C52.9988 29.985 53.5185 30.1465 54.0338 30.1465C54.781 30.1465 55.5193 29.8075 56.0032 29.164C58.2673 26.1533 59.5145 22.4202 59.5145 18.6532C59.5145 14.6234 58.1084 10.6872 55.5539 7.57002C54.6919 6.51836 53.141 6.36455 52.0887 7.22587C51.0377 8.08784 50.8833 9.63874 51.7452 10.6904C53.58 12.9309 54.59 15.7584 54.59 18.6532Z"
          fill="white"/>
    <path d="M64.3551 18.653C64.3551 23.7678 62.5786 28.7704 59.3518 32.7393C58.4937 33.7941 58.6539 35.345 59.7094 36.2025C60.1657 36.5736 60.7149 36.7543 61.261 36.7543C61.9762 36.7543 62.6863 36.4435 63.1727 35.8449C67.1108 31.0012 69.2795 24.8957 69.2795 18.653C69.2795 12.1213 66.9301 5.8004 62.6645 0.854187C61.7762 -0.175687 60.2215 -0.290402 59.1916 0.59784C58.1624 1.48544 58.0477 3.04018 58.9353 4.07006C62.4305 8.1229 64.3551 13.3018 64.3551 18.653Z"
          fill="white"/>
    <path d="M65.1688 79.0762H58.257L45.6762 25.4523C48.0935 24.1462 49.7399 21.5885 49.7399 18.6533C49.7399 14.396 46.276 10.9321 42.0187 10.9321C37.7614 10.9321 34.2976 14.396 34.2976 18.6533C34.2976 21.5891 35.9439 24.1462 38.3613 25.4523L25.7804 79.0762H18.8821C17.5222 79.0762 16.4199 80.1785 16.4199 81.5384C16.4199 82.8977 17.5222 84 18.8821 84H65.1688C66.5287 84 67.631 82.8977 67.631 81.5384C67.631 80.1785 66.5287 79.0762 65.1688 79.0762ZM48.5524 59.2708L39.1374 53.6575L46.2568 49.4861L48.5524 59.2708ZM42.0187 15.8566C43.5613 15.8566 44.8161 17.1114 44.8161 18.6533C44.8161 20.1959 43.5613 21.4507 42.0187 21.4507C40.4768 21.4507 39.222 20.1959 39.222 18.6533C39.222 17.1114 40.4768 15.8566 42.0187 15.8566ZM42.0187 31.4226L45.0795 44.4687L37.9825 48.6273L42.0187 31.4226ZM35.9087 57.4655L47.4334 64.3362L32.1801 73.359L35.9087 57.4655ZM32.1865 79.0762L50.6384 68.1616L53.1987 79.0762H32.1865Z"
          fill="white"/>
</svg>
