<svg width="117" height="44" viewBox="0 0 117 44" fill="none" xmlns="http://www.w3.org/2000/svg">
<rect x="0.739492" y="0.385" width="115.188" height="43.23" rx="8.615" stroke="white" stroke-opacity="0.4" stroke-width="0.77"/>
<g clip-path="url(#clip0_7768_8221)">
<path fill-rule="evenodd" clip-rule="evenodd" d="M30.3542 10L32.312 12.0209H32.3123C32.3123 12.0209 31.1123 14.1684 31.1123 15.9999C31.1123 17.4879 31.3787 18.499 31.6605 19.5685C31.9767 20.769 32.3123 22.043 32.3123 24.1473C32.3123 29.8962 27.0502 32.0048 24.0729 33.1979C23.2885 33.5122 22.6627 33.7629 22.3334 34C22.0201 33.7548 21.3779 33.495 20.5631 33.1653C17.5998 31.9663 12.3545 29.844 12.3545 24.1473C12.3545 22.0227 12.6966 20.7084 13.0155 19.4834C13.2938 18.4141 13.5545 17.4128 13.5545 15.9999C13.5545 14.1684 12.3545 12.0209 12.3545 12.0209L14.3123 10C15.8909 11.5791 20.6909 11.6422 22.333 10C23.9752 11.6422 28.7751 11.5791 30.3542 10ZM17.5926 19.7711L21.4613 23.6399L27.8421 17.259L29.445 18.8619L21.4613 26.8459L15.9894 21.3743L17.5926 19.7711Z" fill="white"/>
</g>
<path d="M47.1866 10.4091V23.5H44.8151V12.7166H44.7384L41.6767 14.6726V12.4993L44.9302 10.4091H47.1866ZM54.8092 23.7493C53.7567 23.7493 52.8533 23.483 52.099 22.9503C51.349 22.4134 50.7716 21.6399 50.3668 20.63C49.9662 19.6158 49.7659 18.3949 49.7659 16.9673C49.7702 15.5398 49.9726 14.3253 50.3732 13.3239C50.778 12.3182 51.3554 11.5511 52.1054 11.0227C52.8597 10.4943 53.7609 10.2301 54.8092 10.2301C55.8575 10.2301 56.7588 10.4943 57.5131 11.0227C58.2673 11.5511 58.8448 12.3182 59.2453 13.3239C59.6501 14.3295 59.8526 15.544 59.8526 16.9673C59.8526 18.3991 59.6501 19.6222 59.2453 20.6364C58.8448 21.6463 58.2673 22.4176 57.5131 22.9503C56.7631 23.483 55.8618 23.7493 54.8092 23.7493ZM54.8092 21.7486C55.6274 21.7486 56.273 21.3459 56.746 20.5405C57.2233 19.7308 57.4619 18.5398 57.4619 16.9673C57.4619 15.9276 57.3533 15.054 57.1359 14.3466C56.9186 13.6392 56.6118 13.1065 56.2155 12.7486C55.8192 12.3864 55.3504 12.2053 54.8092 12.2053C53.9953 12.2053 53.3519 12.6101 52.8788 13.4197C52.4058 14.2251 52.1672 15.4077 52.1629 16.9673C52.1587 18.0114 52.2631 18.8892 52.4761 19.6009C52.6935 20.3125 53.0003 20.8494 53.3966 21.2116C53.7929 21.5696 54.2638 21.7486 54.8092 21.7486ZM66.2751 23.7493C65.2225 23.7493 64.3191 23.483 63.5649 22.9503C62.8149 22.4134 62.2375 21.6399 61.8326 20.63C61.4321 19.6158 61.2318 18.3949 61.2318 16.9673C61.236 15.5398 61.4385 14.3253 61.839 13.3239C62.2438 12.3182 62.8213 11.5511 63.5713 11.0227C64.3255 10.4943 65.2268 10.2301 66.2751 10.2301C67.3234 10.2301 68.2247 10.4943 68.9789 11.0227C69.7332 11.5511 70.3106 12.3182 70.7112 13.3239C71.116 14.3295 71.3184 15.544 71.3184 16.9673C71.3184 18.3991 71.116 19.6222 70.7112 20.6364C70.3106 21.6463 69.7332 22.4176 68.9789 22.9503C68.2289 23.483 67.3277 23.7493 66.2751 23.7493ZM66.2751 21.7486C67.0933 21.7486 67.7389 21.3459 68.2119 20.5405C68.6892 19.7308 68.9278 18.5398 68.9278 16.9673C68.9278 15.9276 68.8191 15.054 68.6018 14.3466C68.3845 13.6392 68.0777 13.1065 67.6813 12.7486C67.285 12.3864 66.8163 12.2053 66.2751 12.2053C65.4612 12.2053 64.8177 12.6101 64.3447 13.4197C63.8717 14.2251 63.6331 15.4077 63.6288 16.9673C63.6245 18.0114 63.7289 18.8892 63.942 19.6009C64.1593 20.3125 64.4662 20.8494 64.8625 21.2116C65.2588 21.5696 65.7296 21.7486 66.2751 21.7486ZM79.9015 21.0455V20.3551C79.9015 19.848 80.008 19.3814 80.2211 18.9553C80.4384 18.5291 80.7537 18.1861 81.1671 17.9261C81.5804 17.6662 82.0812 17.5362 82.6692 17.5362C83.2743 17.5362 83.7814 17.6662 84.1905 17.9261C84.5996 18.1818 84.9086 18.5227 85.1174 18.9489C85.3304 19.375 85.437 19.8437 85.437 20.3551V21.0455C85.437 21.5526 85.3304 22.0192 85.1174 22.4453C84.9043 22.8714 84.5911 23.2145 84.1777 23.4744C83.7687 23.7344 83.2658 23.8643 82.6692 23.8643C82.0726 23.8643 81.5677 23.7344 81.1543 23.4744C80.741 23.2145 80.4277 22.8714 80.2147 22.4453C80.0059 22.0192 79.9015 21.5526 79.9015 21.0455ZM81.5698 20.3551V21.0455C81.5698 21.3821 81.6508 21.6911 81.8127 21.9723C81.9746 22.2536 82.2601 22.3942 82.6692 22.3942C83.0826 22.3942 83.366 22.2557 83.5194 21.9787C83.677 21.6974 83.7559 21.3864 83.7559 21.0455V20.3551C83.7559 20.0142 83.6813 19.7031 83.5322 19.4219C83.383 19.1364 83.0954 18.9936 82.6692 18.9936C82.2687 18.9936 81.9853 19.1364 81.8191 19.4219C81.6529 19.7031 81.5698 20.0142 81.5698 20.3551ZM73.2473 13.554V12.8636C73.2473 12.3523 73.356 11.8835 73.5733 11.4574C73.7907 11.0312 74.106 10.6903 74.5194 10.4347C74.9327 10.1747 75.4334 10.0447 76.0215 10.0447C76.6223 10.0447 77.1273 10.1747 77.5364 10.4347C77.9498 10.6903 78.2608 11.0312 78.4697 11.4574C78.6785 11.8835 78.7829 12.3523 78.7829 12.8636V13.554C78.7829 14.0653 78.6763 14.5341 78.4633 14.9602C78.2545 15.3821 77.9434 15.7209 77.53 15.9766C77.1167 16.2322 76.6138 16.3601 76.0215 16.3601C75.4206 16.3601 74.9135 16.2322 74.5002 15.9766C74.0911 15.7209 73.78 15.38 73.567 14.9538C73.3539 14.5277 73.2473 14.0611 73.2473 13.554ZM74.9285 12.8636V13.554C74.9285 13.8949 75.0073 14.206 75.165 14.4872C75.3269 14.7642 75.6124 14.9027 76.0215 14.9027C76.4306 14.9027 76.7118 14.7642 76.8652 14.4872C77.0229 14.206 77.1018 13.8949 77.1018 13.554V12.8636C77.1018 12.5227 77.0272 12.2116 76.878 11.9304C76.7289 11.6449 76.4434 11.5021 76.0215 11.5021C75.6167 11.5021 75.3333 11.6449 75.1714 11.9304C75.0094 12.2159 74.9285 12.527 74.9285 12.8636ZM73.976 23.5L82.976 10.4091H84.5741L75.5741 23.5H73.976Z" fill="white"/>
<path d="M46.8183 29.0831H45.8211C45.7828 28.87 45.7114 28.6825 45.607 28.5206C45.5026 28.3587 45.3747 28.2212 45.2235 28.1083C45.0722 27.9954 44.9028 27.9102 44.7153 27.8526C44.5299 27.7951 44.3328 27.7663 44.124 27.7663C43.7469 27.7663 43.4092 27.8612 43.1109 28.0508C42.8147 28.2404 42.5803 28.5185 42.4078 28.8849C42.2373 29.2514 42.1521 29.6989 42.1521 30.2273C42.1521 30.7599 42.2373 31.2095 42.4078 31.576C42.5803 31.9425 42.8158 32.2195 43.1141 32.407C43.4124 32.5945 43.748 32.6882 44.1208 32.6882C44.3275 32.6882 44.5235 32.6605 44.7089 32.6051C44.8964 32.5476 45.0658 32.4634 45.2171 32.3526C45.3683 32.2418 45.4962 32.1065 45.6006 31.9467C45.7071 31.7848 45.7806 31.5994 45.8211 31.3906L46.8183 31.3938C46.765 31.7156 46.6617 32.0117 46.5083 32.2823C46.357 32.5508 46.162 32.783 45.9234 32.979C45.6869 33.1729 45.4163 33.3232 45.1116 33.4297C44.8069 33.5362 44.4745 33.5895 44.1144 33.5895C43.5477 33.5895 43.0427 33.4553 42.5995 33.1868C42.1563 32.9162 41.8069 32.5295 41.5512 32.0266C41.2977 31.5238 41.1709 30.924 41.1709 30.2273C41.1709 29.5284 41.2987 28.9286 41.5544 28.4279C41.8101 27.9251 42.1595 27.5394 42.6027 27.271C43.0459 27.0004 43.5498 26.8651 44.1144 26.8651C44.4617 26.8651 44.7856 26.9151 45.086 27.0153C45.3886 27.1133 45.6602 27.2582 45.901 27.4499C46.1418 27.6396 46.341 27.8718 46.4987 28.1467C46.6563 28.4194 46.7629 28.7315 46.8183 29.0831ZM53.4157 30.2273C53.4157 30.9261 53.2879 31.527 53.0322 32.0298C52.7765 32.5305 52.426 32.9162 51.9807 33.1868C51.5375 33.4553 51.0336 33.5895 50.469 33.5895C49.9022 33.5895 49.3962 33.4553 48.9509 33.1868C48.5077 32.9162 48.1583 32.5295 47.9026 32.0266C47.6469 31.5238 47.5191 30.924 47.5191 30.2273C47.5191 29.5284 47.6469 28.9286 47.9026 28.4279C48.1583 27.9251 48.5077 27.5394 48.9509 27.271C49.3962 27.0004 49.9022 26.8651 50.469 26.8651C51.0336 26.8651 51.5375 27.0004 51.9807 27.271C52.426 27.5394 52.7765 27.9251 53.0322 28.4279C53.2879 28.9286 53.4157 29.5284 53.4157 30.2273ZM52.4377 30.2273C52.4377 29.6946 52.3515 29.2461 52.1789 28.8817C52.0084 28.5153 51.774 28.2383 51.4757 28.0508C51.1796 27.8612 50.844 27.7663 50.469 27.7663C50.0919 27.7663 49.7552 27.8612 49.4591 28.0508C49.1629 28.2383 48.9285 28.5153 48.7559 28.8817C48.5855 29.2461 48.5002 29.6946 48.5002 30.2273C48.5002 30.7599 48.5855 31.2095 48.7559 31.576C48.9285 31.9403 49.1629 32.2173 49.4591 32.407C49.7552 32.5945 50.0919 32.6882 50.469 32.6882C50.844 32.6882 51.1796 32.5945 51.4757 32.407C51.774 32.2173 52.0084 31.9403 52.1789 31.576C52.3515 31.2095 52.4377 30.7599 52.4377 30.2273ZM59.66 26.9545V33.5H58.7524L55.4253 28.6996H55.3646V33.5H54.377V26.9545H55.2911L58.6213 31.7614H58.682V26.9545H59.66ZM60.8306 33.5V26.9545H64.8896V27.8047H61.8182V29.799H64.5987V30.646H61.8182V33.5H60.8306ZM66.8216 26.9545V33.5H65.8341V26.9545H66.8216ZM70.1088 33.5H67.9898V26.9545H70.1759C70.8173 26.9545 71.368 27.0856 71.8283 27.3477C72.2885 27.6076 72.6411 27.9815 72.8862 28.4695C73.1333 28.9553 73.2569 29.538 73.2569 30.2177C73.2569 30.8995 73.1322 31.4854 72.883 31.9755C72.6358 32.4656 72.2778 32.8427 71.8091 33.1069C71.3403 33.369 70.7736 33.5 70.1088 33.5ZM68.9774 32.6371H70.0545C70.5531 32.6371 70.9675 32.5433 71.2977 32.3558C71.628 32.1662 71.8751 31.8924 72.0392 31.5344C72.2033 31.1744 72.2853 30.7354 72.2853 30.2177C72.2853 29.7042 72.2033 29.2685 72.0392 28.9105C71.8773 28.5526 71.6354 28.2809 71.3137 28.0955C70.992 27.9102 70.5925 27.8175 70.1152 27.8175H68.9774V32.6371ZM74.215 33.5V26.9545H78.3187V27.8047H75.2025V29.799H78.1045V30.646H75.2025V32.6499H78.357V33.5H74.215ZM84.6508 26.9545V33.5H83.7432L80.4161 28.6996H80.3554V33.5H79.3678V26.9545H80.2819L83.6121 31.7614H83.6729V26.9545H84.6508ZM85.4987 27.8047V26.9545H90.5643V27.8047H88.5221V33.5H87.5377V27.8047H85.4987ZM92.4013 26.9545V33.5H91.4138V26.9545H92.4013ZM94.1224 33.5H93.0742L95.4296 26.9545H96.5706L98.9261 33.5H97.8778L96.0273 28.1435H95.9761L94.1224 33.5ZM94.2982 30.9368H97.6988V31.7678H94.2982V30.9368ZM99.6013 33.5V26.9545H100.589V32.6499H103.555V33.5H99.6013Z" fill="white"/>
<defs>
<clipPath id="clip0_7768_8221">
<rect width="19.9578" height="24" fill="white" transform="translate(12.3545 10)"/>
</clipPath>
</defs>
</svg>
