<svg width="1132" height="1094" viewBox="0 0 1132 1094" fill="none" xmlns="http://www.w3.org/2000/svg">
<g clip-path="url(#clip0_173_7372)">
<g filter="url(#filter0_f_173_7372)">
<circle cx="593.5" cy="539.5" r="298.5" fill="url(#paint0_linear_173_7372)"/>
</g>
<g filter="url(#filter1_f_173_7372)">
<circle cx="743.5" cy="375.5" r="232.5" fill="url(#paint1_linear_173_7372)"/>
</g>
<g clip-path="url(#clip1_173_7372)">
<path d="M270.644 409.716C270.644 409.716 261.885 371.218 288.095 360.78C317.577 349.04 371.044 396.515 392.255 432.978" stroke="url(#paint2_linear_173_7372)"/>
<mask id="path-4-outside-1_173_7372" maskUnits="userSpaceOnUse" x="354" y="425.003" width="81" height="92" fill="black">
<rect fill="white" x="354" y="425.003" width="81" height="92"/>
<path fill-rule="evenodd" clip-rule="evenodd" d="M362 464.61C362 447.131 376.697 433.003 394.474 433.003C412.302 433.003 427 447.131 427 464.61C427 473.419 423.776 481.596 418.471 488.527C412.618 496.172 405.405 502.834 397.285 508.062C395.427 509.271 393.75 509.362 391.71 508.062C383.544 502.834 376.33 496.172 370.528 488.527C365.219 481.596 362 473.419 362 464.61ZM383.771 465.595C383.771 471.45 388.579 476.056 394.474 476.056C400.373 476.056 405.227 471.45 405.227 465.595C405.227 459.785 400.373 454.955 394.474 454.955C388.579 454.955 383.771 459.785 383.771 465.595Z"/>
</mask>
<path fill-rule="evenodd" clip-rule="evenodd" d="M362 464.61C362 447.131 376.697 433.003 394.474 433.003C412.302 433.003 427 447.131 427 464.61C427 473.419 423.776 481.596 418.471 488.527C412.618 496.172 405.405 502.834 397.285 508.062C395.427 509.271 393.75 509.362 391.71 508.062C383.544 502.834 376.33 496.172 370.528 488.527C365.219 481.596 362 473.419 362 464.61ZM383.771 465.595C383.771 471.45 388.579 476.056 394.474 476.056C400.373 476.056 405.227 471.45 405.227 465.595C405.227 459.785 400.373 454.955 394.474 454.955C388.579 454.955 383.771 459.785 383.771 465.595Z" fill="white" fill-opacity="0.5"/>
<path d="M418.471 488.527L424.824 493.39L424.824 493.389L418.471 488.527ZM397.285 508.062L392.954 501.336L392.939 501.346L392.924 501.355L397.285 508.062ZM391.71 508.062L387.396 514.799L387.404 514.804L387.411 514.809L391.71 508.062ZM370.528 488.527L376.9 483.69L376.89 483.676L376.879 483.662L370.528 488.527ZM394.474 425.003C372.513 425.003 354 442.481 354 464.61H370C370 451.781 380.88 441.003 394.474 441.003V425.003ZM435 464.61C435 442.473 416.477 425.003 394.474 425.003V441.003C408.127 441.003 419 451.789 419 464.61H435ZM424.824 493.389C431.025 485.288 435 475.441 435 464.61H419C419 471.396 416.528 477.904 412.118 483.664L424.824 493.389ZM401.616 514.788C410.515 509.058 418.412 501.766 424.824 493.39L412.119 483.664C406.825 490.579 400.295 496.609 392.954 501.336L401.616 514.788ZM387.411 514.809C389.345 516.041 391.789 517.038 394.666 517.002C397.53 516.966 399.879 515.918 401.646 514.769L392.924 501.355C392.833 501.415 393.414 501.016 394.465 501.003C395.529 500.99 396.115 501.383 396.009 501.315L387.411 514.809ZM364.155 493.363C370.53 501.762 378.441 509.066 387.396 514.799L396.024 501.325C388.647 496.601 382.131 490.582 376.9 483.69L364.155 493.363ZM354 464.61C354 475.439 357.969 485.287 364.177 493.392L376.879 483.662C372.469 477.905 370 471.398 370 464.61H354ZM394.474 468.056C392.776 468.056 391.771 466.815 391.771 465.595H375.771C375.771 476.086 384.381 484.056 394.474 484.056V468.056ZM397.227 465.595C397.227 466.769 396.223 468.056 394.474 468.056V484.056C404.523 484.056 413.227 476.132 413.227 465.595H397.227ZM394.474 462.955C396.022 462.955 397.227 464.27 397.227 465.595H413.227C413.227 455.3 404.724 446.955 394.474 446.955V462.955ZM391.771 465.595C391.771 464.223 392.977 462.955 394.474 462.955V446.955C384.181 446.955 375.771 455.346 375.771 465.595H391.771Z" fill="#F6F8FC" fill-opacity="0.14" mask="url(#path-4-outside-1_173_7372)"/>
<path d="M844.725 300.677C844.071 300.349 843.3 300.349 842.646 300.677L782.29 330.854C781.144 331.428 780.68 332.823 781.253 333.969C781.58 334.622 782.194 335.083 782.912 335.214L806.866 339.571L811.224 363.525C811.402 364.507 812.188 365.265 813.176 365.408C813.285 365.424 813.395 365.431 813.505 365.431C814.385 365.431 815.19 364.934 815.583 364.147L845.761 303.792C846.335 302.646 845.871 301.251 844.725 300.677Z" fill="white" fill-opacity="0.5"/>
<path d="M780.5 327.277L780.501 327.277L840.854 297.101C840.854 297.1 840.855 297.1 840.856 297.099C840.856 297.099 840.856 297.099 840.857 297.099C842.638 296.207 844.736 296.208 846.517 297.1L780.5 327.277ZM780.5 327.277C777.378 328.84 776.114 332.637 777.676 335.759L781.207 333.992M780.5 327.277L781.207 333.992M781.207 333.992L777.676 335.759C778.565 337.536 780.239 338.792 782.194 339.149L782.196 339.149M781.207 333.992L782.196 339.149M782.196 339.149L803.426 343.011M782.196 339.149L803.426 343.011M803.426 343.011L807.288 364.24C807.774 366.914 809.914 368.979 812.605 369.367M803.426 343.011L812.605 369.367M812.605 369.367C812.604 369.367 812.604 369.367 812.604 369.367L813.174 365.421L812.605 369.367ZM813.506 369.431C815.901 369.431 818.09 368.078 819.161 365.936L815.583 364.147L819.161 365.935L849.337 305.584C849.338 305.583 849.338 305.582 849.339 305.581L813.506 369.431Z" stroke="#F6F8FC" stroke-opacity="0.14" stroke-width="8"/>
<path d="M850.978 295.779C850.978 295.779 943.153 118.75 1075.7 166.031C1124.89 183.577 1180.35 250.506 1180.35 250.506" stroke="url(#paint3_linear_173_7372)" stroke-linejoin="round"/>
<path d="M661.236 689.187C446.004 791.295 186.389 753.677 241.963 611.137" stroke="url(#paint4_linear_173_7372)" stroke-miterlimit="16"/>
<mask id="path-10-outside-2_173_7372" maskUnits="userSpaceOnUse" x="642.385" y="617.634" width="96" height="113" fill="black">
<rect fill="white" x="642.385" y="617.634" width="96" height="113"/>
<path fill-rule="evenodd" clip-rule="evenodd" d="M727.428 643.182C727.428 651.216 720.915 657.729 712.88 657.729C704.846 657.729 698.333 651.216 698.333 643.182C698.333 635.147 704.846 628.634 712.88 628.634C720.915 628.634 727.428 635.147 727.428 643.182ZM707.896 649.919V648.495C708.909 647.588 709.822 646.752 710.636 645.987C711.465 645.222 712.163 644.513 712.731 643.861C713.315 643.21 713.76 642.6 714.067 642.034C714.374 641.467 714.527 640.928 714.527 640.418C714.527 639.696 714.32 639.129 713.906 638.718C713.491 638.293 712.892 638.08 712.11 638.08C711.542 638.08 711.02 638.229 710.544 638.527C710.083 638.824 709.653 639.178 709.254 639.589L707.781 638.229C708.456 637.563 709.147 637.053 709.853 636.699C710.574 636.33 711.442 636.146 712.455 636.146C713.161 636.146 713.798 636.245 714.366 636.444C714.934 636.642 715.418 636.926 715.817 637.294C716.216 637.648 716.523 638.08 716.738 638.59C716.968 639.101 717.083 639.667 717.083 640.291C717.083 640.886 716.937 641.495 716.646 642.119C716.369 642.728 715.986 643.351 715.494 643.989C715.019 644.612 714.458 645.257 713.814 645.923C713.169 646.589 712.486 647.276 711.764 647.985C712.148 647.956 712.562 647.928 713.008 647.9C713.453 647.857 713.852 647.836 714.205 647.836H717.797V649.919H707.896ZM691.643 655.004C702.585 657.501 706.946 666.94 706.946 678.215V694.172C706.946 696.765 708.434 699.129 710.772 700.252C713.11 701.374 714.598 703.738 714.598 706.332V709.434H653.385V706.332C653.385 703.738 654.873 701.374 657.211 700.252C659.55 699.129 661.037 696.765 661.037 694.172L661.037 678.215C661.037 666.903 665.36 657.501 676.34 655.004V654.649C676.34 650.423 679.766 646.997 683.992 646.997C688.217 646.997 691.643 650.423 691.643 654.649V655.004ZM683.992 720.452C684.527 720.452 685.025 720.415 685.522 720.305C688.009 719.791 690.036 718.175 691.031 715.971C691.414 715.09 691.605 714.135 691.605 713.106H676.302C676.34 717.146 679.745 720.452 683.992 720.452Z"/>
</mask>
<path fill-rule="evenodd" clip-rule="evenodd" d="M727.428 643.182C727.428 651.216 720.915 657.729 712.88 657.729C704.846 657.729 698.333 651.216 698.333 643.182C698.333 635.147 704.846 628.634 712.88 628.634C720.915 628.634 727.428 635.147 727.428 643.182ZM707.896 649.919V648.495C708.909 647.588 709.822 646.752 710.636 645.987C711.465 645.222 712.163 644.513 712.731 643.861C713.315 643.21 713.76 642.6 714.067 642.034C714.374 641.467 714.527 640.928 714.527 640.418C714.527 639.696 714.32 639.129 713.906 638.718C713.491 638.293 712.892 638.08 712.11 638.08C711.542 638.08 711.02 638.229 710.544 638.527C710.083 638.824 709.653 639.178 709.254 639.589L707.781 638.229C708.456 637.563 709.147 637.053 709.853 636.699C710.574 636.33 711.442 636.146 712.455 636.146C713.161 636.146 713.798 636.245 714.366 636.444C714.934 636.642 715.418 636.926 715.817 637.294C716.216 637.648 716.523 638.08 716.738 638.59C716.968 639.101 717.083 639.667 717.083 640.291C717.083 640.886 716.937 641.495 716.646 642.119C716.369 642.728 715.986 643.351 715.494 643.989C715.019 644.612 714.458 645.257 713.814 645.923C713.169 646.589 712.486 647.276 711.764 647.985C712.148 647.956 712.562 647.928 713.008 647.9C713.453 647.857 713.852 647.836 714.205 647.836H717.797V649.919H707.896ZM691.643 655.004C702.585 657.501 706.946 666.94 706.946 678.215V694.172C706.946 696.765 708.434 699.129 710.772 700.252C713.11 701.374 714.598 703.738 714.598 706.332V709.434H653.385V706.332C653.385 703.738 654.873 701.374 657.211 700.252C659.55 699.129 661.037 696.765 661.037 694.172L661.037 678.215C661.037 666.903 665.36 657.501 676.34 655.004V654.649C676.34 650.423 679.766 646.997 683.992 646.997C688.217 646.997 691.643 650.423 691.643 654.649V655.004ZM683.992 720.452C684.527 720.452 685.025 720.415 685.522 720.305C688.009 719.791 690.036 718.175 691.031 715.971C691.414 715.09 691.605 714.135 691.605 713.106H676.302C676.34 717.146 679.745 720.452 683.992 720.452Z" fill="white" fill-opacity="0.5"/>
<path d="M707.896 648.495L701.215 641.031C699.092 642.931 697.879 645.646 697.879 648.495H707.896ZM707.896 649.919H697.879C697.879 655.451 702.364 659.935 707.896 659.935V649.919ZM710.636 645.987L703.842 638.627C703.819 638.648 703.796 638.669 703.774 638.69L710.636 645.987ZM712.731 643.861L705.267 637.182C705.238 637.214 705.209 637.248 705.18 637.281L712.731 643.861ZM714.067 642.034L722.874 646.805L722.874 646.804L714.067 642.034ZM713.906 638.718L706.734 645.711C706.773 645.751 706.813 645.791 706.854 645.831L713.906 638.718ZM710.544 638.527L705.233 630.034C705.191 630.06 705.149 630.087 705.108 630.113L710.544 638.527ZM709.254 639.589L702.46 646.95C706.452 650.634 712.654 650.465 716.439 646.568L709.254 639.589ZM707.781 638.229L700.748 631.096C698.798 633.019 697.72 635.656 697.765 638.394C697.811 641.132 698.975 643.732 700.987 645.589L707.781 638.229ZM709.853 636.699L714.344 645.652C714.366 645.641 714.387 645.63 714.408 645.62L709.853 636.699ZM714.366 636.444L717.669 626.987L717.669 626.987L714.366 636.444ZM715.817 637.294L709.023 644.654C709.071 644.698 709.119 644.742 709.168 644.785L715.817 637.294ZM716.738 638.59L707.507 642.48C707.54 642.557 707.574 642.635 707.608 642.712L716.738 638.59ZM716.646 642.119L707.573 637.874C707.556 637.91 707.54 637.946 707.524 637.982L716.646 642.119ZM715.494 643.989L707.56 637.876C707.551 637.888 707.541 637.9 707.532 637.912L715.494 643.989ZM713.814 645.923L706.617 638.956L706.617 638.956L713.814 645.923ZM711.764 647.985L704.746 640.838C701.747 643.782 700.906 648.286 702.639 652.115C704.372 655.944 708.31 658.284 712.502 657.974L711.764 647.985ZM713.008 647.9L713.644 657.896C713.749 657.889 713.855 657.881 713.96 657.871L713.008 647.9ZM717.797 647.836H727.814C727.814 642.304 723.329 637.819 717.797 637.819V647.836ZM717.797 649.919V659.935C723.329 659.935 727.814 655.451 727.814 649.919H717.797ZM691.643 655.004H681.627C681.627 659.677 684.858 663.729 689.414 664.769L691.643 655.004ZM706.946 694.172H696.93V694.172L706.946 694.172ZM710.772 700.252L715.106 691.222L715.106 691.222L710.772 700.252ZM714.598 709.434V719.45C720.13 719.45 724.614 714.966 724.614 709.434H714.598ZM653.385 709.434H643.369C643.369 714.966 647.854 719.45 653.385 719.45V709.434ZM657.211 700.252L652.877 691.222L652.877 691.222L657.211 700.252ZM661.037 694.172H651.02H661.037ZM661.037 678.215H651.02V678.215L661.037 678.215ZM676.34 655.004L678.562 664.771C683.121 663.734 686.357 659.68 686.357 655.004H676.34ZM685.522 720.305L683.494 710.496C683.448 710.505 683.401 710.515 683.355 710.525L685.522 720.305ZM691.031 715.971L700.161 720.092C700.18 720.048 700.2 720.004 700.219 719.959L691.031 715.971ZM691.605 713.106H701.621C701.621 707.574 697.137 703.09 691.605 703.09V713.106ZM676.302 713.106V703.09C673.629 703.09 671.067 704.158 669.186 706.057C667.304 707.956 666.26 710.528 666.286 713.201L676.302 713.106ZM712.88 667.746C726.447 667.746 737.445 656.748 737.445 643.182H717.412C717.412 645.684 715.383 647.713 712.88 647.713V667.746ZM688.316 643.182C688.316 656.748 699.314 667.746 712.88 667.746V647.713C710.378 647.713 708.349 645.684 708.349 643.182H688.316ZM712.88 618.617C699.314 618.617 688.316 629.615 688.316 643.182H708.349C708.349 640.679 710.378 638.65 712.88 638.65V618.617ZM737.445 643.182C737.445 629.615 726.447 618.617 712.88 618.617V638.65C715.383 638.65 717.412 640.679 717.412 643.182H737.445ZM697.879 648.495V649.919H717.912V648.495H697.879ZM703.774 638.69C703.031 639.388 702.18 640.168 701.215 641.031L714.576 655.958C715.638 655.008 716.613 654.116 717.498 653.284L703.774 638.69ZM705.18 637.281C704.909 637.592 704.48 638.038 703.842 638.627L717.43 653.347C718.45 652.406 719.418 651.435 720.283 650.442L705.18 637.281ZM705.259 637.263C705.307 637.175 705.347 637.11 705.372 637.07C705.398 637.029 705.414 637.008 705.415 637.006C705.416 637.005 705.406 637.019 705.381 637.05C705.356 637.08 705.319 637.124 705.267 637.182L720.195 650.541C721.128 649.499 722.09 648.252 722.874 646.805L705.259 637.263ZM704.511 640.418C704.511 638.879 704.978 637.783 705.259 637.263L722.874 646.804C723.77 645.151 724.544 642.977 724.544 640.418H704.511ZM706.854 645.831C704.94 643.934 704.511 641.692 704.511 640.418H724.544C724.544 637.699 723.7 634.324 720.958 631.605L706.854 645.831ZM712.11 648.097C711.088 648.097 708.75 647.778 706.734 645.711L721.077 631.725C718.232 628.808 714.697 628.064 712.11 628.064V648.097ZM715.854 647.02C714.718 647.73 713.396 648.097 712.11 648.097V628.064C709.687 628.064 707.322 628.728 705.233 630.034L715.854 647.02ZM716.439 646.568C716.335 646.676 716.182 646.809 715.98 646.94L705.108 630.113C703.984 630.84 702.972 631.681 702.069 632.61L716.439 646.568ZM700.987 645.589L702.46 646.95L716.048 632.229L714.574 630.869L700.987 645.589ZM705.362 627.746C703.552 628.653 702.025 629.837 700.748 631.096L714.813 645.362C714.887 645.289 714.741 645.453 714.344 645.652L705.362 627.746ZM712.455 626.13C710.246 626.13 707.739 626.531 705.298 627.778L714.408 645.62C713.41 646.129 712.637 646.163 712.455 646.163V626.13ZM717.669 626.987C715.873 626.36 714.095 626.13 712.455 626.13V646.163C712.228 646.163 711.724 646.131 711.063 645.9L717.669 626.987ZM722.611 629.934C721.1 628.539 719.392 627.589 717.669 626.987L711.063 645.9C710.477 645.695 709.735 645.312 709.023 644.654L722.611 629.934ZM725.969 634.701C725.195 632.866 724.026 631.187 722.466 629.802L709.168 644.785C708.406 644.109 707.851 643.295 707.507 642.48L725.969 634.701ZM727.1 640.291C727.1 638.409 726.746 636.415 725.867 634.469L707.608 642.712C707.191 641.786 707.067 640.926 707.067 640.291H727.1ZM725.719 646.363C726.535 644.618 727.1 642.566 727.1 640.291H707.067C707.067 639.206 707.34 638.372 707.573 637.874L725.719 646.363ZM723.429 650.102C724.299 648.973 725.117 647.692 725.768 646.256L707.524 637.982C707.575 637.869 707.612 637.806 707.621 637.792C707.629 637.779 707.613 637.807 707.56 637.876L723.429 650.102ZM721.01 652.89C721.88 651.992 722.705 651.051 723.457 650.066L707.532 637.912C707.332 638.174 707.037 638.522 706.617 638.956L721.01 652.89ZM718.782 655.132C719.559 654.369 720.302 653.622 721.01 652.89L706.617 638.956C706.036 639.556 705.413 640.183 704.746 640.838L718.782 655.132ZM712.371 637.903C711.897 637.934 711.449 637.964 711.027 637.995L712.502 657.974C712.847 657.949 713.227 657.923 713.644 657.896L712.371 637.903ZM714.205 637.819C713.464 637.819 712.738 637.863 712.056 637.929L713.96 657.871C714.059 657.861 714.129 657.857 714.173 657.854C714.218 657.852 714.227 657.853 714.205 657.853V637.819ZM717.797 637.819H714.205V657.853H717.797V637.819ZM727.814 649.919V647.836H707.781V649.919H727.814ZM707.896 659.935H717.797V639.902H707.896V659.935ZM716.963 678.215C716.963 671.414 715.665 664.272 711.978 658.15C708.122 651.747 702.009 647.096 693.872 645.238L689.414 664.769C692.219 665.409 693.757 666.726 694.817 668.486C696.046 670.526 696.93 673.741 696.93 678.215H716.963ZM716.963 694.172V678.215H696.93V694.172H716.963ZM715.106 691.222C716.241 691.766 716.963 692.913 716.963 694.172L696.93 694.172C696.93 700.618 700.626 706.493 706.437 709.282L715.106 691.222ZM724.614 706.332C724.614 699.886 720.918 694.011 715.106 691.222L706.437 709.282C705.303 708.737 704.581 707.59 704.581 706.332H724.614ZM724.614 709.434V706.332H704.581V709.434H724.614ZM653.385 719.45H714.598V699.417H653.385V719.45ZM643.369 706.332V709.434H663.402V706.332H643.369ZM652.877 691.222C647.066 694.011 643.369 699.886 643.369 706.332H663.402C663.402 707.59 662.68 708.737 661.546 709.282L652.877 691.222ZM651.02 694.172C651.02 692.913 651.742 691.766 652.877 691.222L661.546 709.282C667.357 706.493 671.054 700.618 671.054 694.172L651.02 694.172ZM651.02 678.215L651.02 694.172L671.054 694.172L671.054 678.215L651.02 678.215ZM674.118 645.237C665.975 647.089 659.85 651.723 655.989 658.139C652.301 664.267 651.02 671.415 651.02 678.215H671.054C671.054 673.704 671.934 670.495 673.153 668.469C674.198 666.732 675.725 665.416 678.562 664.771L674.118 645.237ZM666.324 654.649V655.004H686.357V654.649H666.324ZM683.992 636.981C674.234 636.981 666.324 644.891 666.324 654.649H686.357C686.357 655.955 685.298 657.014 683.992 657.014V636.981ZM701.66 654.649C701.66 644.891 693.749 636.981 683.992 636.981V657.014C682.685 657.014 681.627 655.955 681.627 654.649H701.66ZM701.66 655.004V654.649H681.627V655.004H701.66ZM683.355 710.525C683.794 710.428 684.071 710.435 683.992 710.435V730.468C684.983 730.468 686.255 730.402 687.688 730.084L683.355 710.525ZM681.901 711.85C682.27 711.034 682.944 710.61 683.494 710.496L687.55 730.114C693.074 728.972 697.803 725.315 700.161 720.092L681.901 711.85ZM681.588 713.106C681.588 712.86 681.641 712.447 681.843 711.983L700.219 719.959C701.186 717.732 701.621 715.409 701.621 713.106H681.588ZM676.302 723.123H691.605V703.09H676.302V723.123ZM683.992 710.435C684.943 710.435 686.301 711.265 686.318 713.011L666.286 713.201C666.379 723.028 674.547 730.468 683.992 730.468V710.435Z" fill="#F6F8FC" fill-opacity="0.14" mask="url(#path-10-outside-2_173_7372)"/>
<path d="M426.648 403.449C423.346 403.449 420.66 406.136 420.66 409.438C420.66 412.74 423.346 415.426 426.648 415.426C429.95 415.426 432.636 412.74 432.636 409.438C432.636 406.136 429.95 403.449 426.648 403.449Z" fill="white" fill-opacity="0.2"/>
<path d="M347.797 422.593C348.789 422.593 349.593 421.789 349.593 420.797C349.593 419.804 348.789 419 347.797 419C346.804 419 346 419.804 346 420.797C346 421.789 346.804 422.593 347.797 422.593Z" fill="white" fill-opacity="0.2"/>
<path d="M331.431 437.735C332.423 437.735 333.228 436.93 333.228 435.938C333.228 434.946 332.423 434.142 331.431 434.142C330.439 434.142 329.635 434.946 329.635 435.938C329.635 436.93 330.439 437.735 331.431 437.735Z" fill="white" fill-opacity="0.2"/>
<path d="M345.797 503.593C346.789 503.593 347.593 502.789 347.593 501.797C347.593 500.804 346.789 500 345.797 500C344.804 500 344 500.804 344 501.797C344 502.789 344.804 503.593 345.797 503.593Z" fill="white" fill-opacity="0.2"/>
<path d="M446.467 435.281C447.459 435.281 448.263 434.476 448.263 433.484C448.263 432.492 447.459 431.688 446.467 431.688C445.475 431.688 444.67 432.492 444.67 433.484C444.67 434.476 445.475 435.281 446.467 435.281Z" fill="white" fill-opacity="0.2"/>
<path d="M446.797 450.593C447.789 450.593 448.593 449.789 448.593 448.797C448.593 447.804 447.789 447 446.797 447C445.804 447 445 447.804 445 448.797C445 449.789 445.804 450.593 446.797 450.593Z" fill="white" fill-opacity="0.2"/>
<path d="M446.926 496.314C447.919 496.314 448.723 495.509 448.723 494.517C448.723 493.525 447.919 492.721 446.926 492.721C445.934 492.721 445.13 493.525 445.13 494.517C445.13 495.509 445.934 496.314 446.926 496.314Z" fill="white" fill-opacity="0.2"/>
<path d="M680.648 618.449C677.346 618.449 674.66 621.136 674.66 624.438C674.66 627.74 677.346 630.426 680.648 630.426C683.95 630.426 686.636 627.74 686.636 624.438C686.636 621.136 683.95 618.449 680.648 618.449Z" fill="white" fill-opacity="0.2"/>
<path d="M655.797 639.593C656.789 639.593 657.593 638.789 657.593 637.797C657.593 636.804 656.789 636 655.797 636C654.804 636 654 636.804 654 637.797C654 638.789 654.804 639.593 655.797 639.593Z" fill="white" fill-opacity="0.2"/>
<path d="M639.431 678.736C640.423 678.736 641.228 677.931 641.228 676.939C641.228 675.947 640.423 675.143 639.431 675.143C638.439 675.143 637.635 675.947 637.635 676.939C637.635 677.931 638.439 678.736 639.431 678.736Z" fill="white" fill-opacity="0.2"/>
<path d="M633.797 710.593C634.789 710.593 635.593 709.789 635.593 708.797C635.593 707.804 634.789 707 633.797 707C632.804 707 632 707.804 632 708.797C632 709.789 632.804 710.593 633.797 710.593Z" fill="white" fill-opacity="0.2"/>
<path d="M725.467 682.281C726.459 682.281 727.263 681.476 727.263 680.484C727.263 679.492 726.459 678.688 725.467 678.688C724.475 678.688 723.67 679.492 723.67 680.484C723.67 681.476 724.475 682.281 725.467 682.281Z" fill="white" fill-opacity="0.2"/>
<path d="M730.797 690.593C731.789 690.593 732.593 689.789 732.593 688.797C732.593 687.804 731.789 687 730.797 687C729.804 687 729 687.804 729 688.797C729 689.789 729.804 690.593 730.797 690.593Z" fill="white" fill-opacity="0.2"/>
<path d="M707.926 729.314C708.919 729.314 709.723 728.509 709.723 727.517C709.723 726.525 708.919 725.721 707.926 725.721C706.934 725.721 706.13 726.525 706.13 727.517C706.13 728.509 706.934 729.314 707.926 729.314Z" fill="white" fill-opacity="0.2"/>
<path d="M822.648 283.449C819.346 283.449 816.66 286.136 816.66 289.438C816.66 292.74 819.346 295.426 822.648 295.426C825.95 295.426 828.636 292.74 828.636 289.438C828.636 286.136 825.95 283.449 822.648 283.449Z" fill="white" fill-opacity="0.2"/>
<path d="M789.797 311.593C790.789 311.593 791.593 310.789 791.593 309.797C791.593 308.804 790.789 308 789.797 308C788.804 308 788 308.804 788 309.797C788 310.789 788.804 311.593 789.797 311.593Z" fill="white" fill-opacity="0.2"/>
<path d="M777.431 314.736C778.423 314.736 779.228 313.931 779.228 312.939C779.228 311.947 778.423 311.143 777.431 311.143C776.439 311.143 775.635 311.947 775.635 312.939C775.635 313.931 776.439 314.736 777.431 314.736Z" fill="white" fill-opacity="0.2"/>
<path d="M792.797 358.593C793.789 358.593 794.593 357.789 794.593 356.797C794.593 355.804 793.789 355 792.797 355C791.804 355 791 355.804 791 356.797C791 357.789 791.804 358.593 792.797 358.593Z" fill="white" fill-opacity="0.2"/>
<path d="M850.466 331.281C851.459 331.281 852.263 330.476 852.263 329.484C852.263 328.492 851.459 327.688 850.466 327.688C849.474 327.688 848.67 328.492 848.67 329.484C848.67 330.476 849.474 331.281 850.466 331.281Z" fill="white" fill-opacity="0.2"/>
<path d="M842.797 357.593C843.789 357.593 844.593 356.789 844.593 355.797C844.593 354.804 843.789 354 842.797 354C841.804 354 841 354.804 841 355.797C841 356.789 841.804 357.593 842.797 357.593Z" fill="white" fill-opacity="0.2"/>
<path d="M822.926 383.314C823.919 383.314 824.723 382.509 824.723 381.517C824.723 380.525 823.919 379.721 822.926 379.721C821.934 379.721 821.13 380.525 821.13 381.517C821.13 382.509 821.934 383.314 822.926 383.314Z" fill="white" fill-opacity="0.2"/>
</g>
</g>
<defs>
<filter id="filter0_f_173_7372" x="95" y="41" width="997" height="997" filterUnits="userSpaceOnUse" color-interpolation-filters="sRGB">
<feFlood flood-opacity="0" result="BackgroundImageFix"/>
<feBlend mode="normal" in="SourceGraphic" in2="BackgroundImageFix" result="shape"/>
<feGaussianBlur stdDeviation="100" result="effect1_foregroundBlur_173_7372"/>
</filter>
<filter id="filter1_f_173_7372" x="411" y="43" width="665" height="665" filterUnits="userSpaceOnUse" color-interpolation-filters="sRGB">
<feFlood flood-opacity="0" result="BackgroundImageFix"/>
<feBlend mode="normal" in="SourceGraphic" in2="BackgroundImageFix" result="shape"/>
<feGaussianBlur stdDeviation="50" result="effect1_foregroundBlur_173_7372"/>
</filter>
<linearGradient id="paint0_linear_173_7372" x1="593.5" y1="241" x2="593.5" y2="838" gradientUnits="userSpaceOnUse">
<stop stop-color="#C57BFF"/>
<stop offset="1" stop-color="#FF6F6F" stop-opacity="0.46"/>
</linearGradient>
<linearGradient id="paint1_linear_173_7372" x1="743.5" y1="143" x2="743.5" y2="608" gradientUnits="userSpaceOnUse">
<stop stop-color="#2F43F2"/>
<stop offset="1" stop-color="#F58A25" stop-opacity="0"/>
<stop offset="1" stop-color="#7061A3"/>
</linearGradient>
<linearGradient id="paint2_linear_173_7372" x1="389.12" y1="397.465" x2="270.39" y2="412.07" gradientUnits="userSpaceOnUse">
<stop stop-color="white"/>
<stop offset="1" stop-color="white" stop-opacity="0"/>
</linearGradient>
<linearGradient id="paint3_linear_173_7372" x1="894.268" y1="182.969" x2="1151.1" y2="115.266" gradientUnits="userSpaceOnUse">
<stop stop-color="white"/>
<stop offset="1" stop-color="white" stop-opacity="0"/>
</linearGradient>
<linearGradient id="paint4_linear_173_7372" x1="239.962" y1="610.192" x2="617.386" y2="843.683" gradientUnits="userSpaceOnUse">
<stop stop-color="white" stop-opacity="0"/>
<stop offset="1" stop-color="white"/>
</linearGradient>
<clipPath id="clip0_173_7372">
<rect width="1132" height="1094" fill="white"/>
</clipPath>
<clipPath id="clip1_173_7372">
<rect width="986" height="749" fill="white" transform="translate(254 68)"/>
</clipPath>
</defs>
</svg>
