<svg width="24" height="26" viewBox="0 0 24 26" fill="none" xmlns="http://www.w3.org/2000/svg">
    <path fill-rule="evenodd" clip-rule="evenodd" d="M11.4912 0C5.26902 0 0.125 4.83326 0.125 10.8131C0.125 13.8264 1.25177 16.6239 3.10993 18.995C5.14082 21.6106 7.6656 23.8894 10.5237 25.6782C11.2375 26.1227 11.8245 26.0915 12.475 25.6782C15.3169 23.8894 17.8416 21.6106 19.8901 18.995C21.7469 16.6239 22.875 13.8264 22.875 10.8131C22.875 4.83326 17.731 0 11.4912 0ZM7.34589 12.6488C6.94738 13.0473 6.72349 13.5878 6.72349 14.1514C6.72349 14.715 6.94738 15.2555 7.34589 15.654C7.74441 16.0525 8.28491 16.2764 8.84849 16.2764C9.12755 16.2764 9.40388 16.2214 9.6617 16.1146C9.91951 16.0078 10.1538 15.8513 10.3511 15.654L11.6769 14.3281C12.0674 13.9376 12.7006 13.9376 13.0911 14.3281C13.4817 14.7187 13.4817 15.3518 13.0911 15.7424L11.7653 17.0682C11.3823 17.4512 10.9275 17.7551 10.4271 17.9624C9.9266 18.1697 9.3902 18.2764 8.84849 18.2764C7.75448 18.2764 6.70527 17.8418 5.93168 17.0682C5.15809 16.2946 4.72349 15.2454 4.72349 14.1514C4.72349 13.0573 5.15809 12.0081 5.93168 11.2346L7.2575 9.90873C7.64803 9.5182 8.28119 9.5182 8.67172 9.90873C9.06224 10.2993 9.06224 10.9324 8.67172 11.3229L7.34589 12.6488ZM9.90915 8.67129C9.51863 8.28077 9.51863 7.6476 9.90915 7.25708L11.235 5.93125C11.618 5.54821 12.0728 5.24436 12.5732 5.03706C13.0737 4.82976 13.6101 4.72307 14.1518 4.72307C14.6935 4.72307 15.2299 4.82976 15.7304 5.03706C16.2308 5.24436 16.6856 5.54821 17.0686 5.93125C17.4517 6.31429 17.7555 6.76903 17.9628 7.2695C18.1701 7.76997 18.2768 8.30636 18.2768 8.84807C18.2768 9.38977 18.1701 9.92617 17.9628 10.4266C17.7555 10.9271 17.4517 11.3818 17.0686 11.7649L15.7428 13.0907C15.3523 13.4812 14.7191 13.4812 14.3286 13.0907C13.938 12.7002 13.938 12.067 14.3286 11.6765L15.6544 10.3507C15.8517 10.1533 16.0082 9.91908 16.115 9.66127C16.2218 9.40345 16.2768 9.12713 16.2768 8.84807C16.2768 8.56901 16.2218 8.29268 16.115 8.03486C16.0082 7.77705 15.8517 7.54279 15.6544 7.34546C15.4571 7.14814 15.2228 6.99161 14.965 6.88482C14.7072 6.77803 14.4309 6.72307 14.1518 6.72307C13.8727 6.72307 13.5964 6.77803 13.3386 6.88482C13.0808 6.99161 12.8465 7.14814 12.6492 7.34546L11.3234 8.67129C10.9328 9.06181 10.2997 9.06181 9.90915 8.67129ZM9.02532 12.5605C8.63479 12.951 8.63479 13.5842 9.02532 13.9747C9.41584 14.3652 10.049 14.3652 10.4395 13.9747L13.9751 10.4392C14.3656 10.0486 14.3656 9.41546 13.9751 9.02494C13.5845 8.63441 12.9514 8.63441 12.5608 9.02494L9.02532 12.5605Z" fill="url(#paint0_linear_5626_10468)"/>
    <defs>
        <linearGradient id="paint0_linear_5626_10468" x1="0.125" y1="9.1" x2="22.875" y2="9.1" gradientUnits="userSpaceOnUse">
            <stop stop-color="#79D7FF"/>
            <stop offset="1" stop-color="#9161FF"/>
        </linearGradient>
    </defs>
</svg>
