<svg width="32" height="32" viewBox="0 0 32 32" fill="none" xmlns="http://www.w3.org/2000/svg">
    <path fill-rule="evenodd" clip-rule="evenodd" d="M4.00006 16.018C4.00006 9.69654 9.05206 4 16.0241 4C22.8401 4 28.0001 9.58838 28.0001 15.982C28.0001 23.3971 21.9521 28 16.0001 28C14.0321 28 11.8481 27.4712 10.0961 26.4377C9.48406 26.0651 8.96806 25.7887 8.30806 26.005L5.88406 26.7261C5.27206 26.9184 4.72006 26.4377 4.90006 25.7887L5.70406 23.0966C5.83606 22.7241 5.81206 22.3275 5.62006 22.015C4.58806 20.1162 4.00006 18.0371 4.00006 16.018ZM14.4403 16.018C14.4403 16.8713 15.1243 17.5563 15.9763 17.5684C16.8283 17.5684 17.5123 16.8713 17.5123 16.03C17.5123 15.1768 16.8283 14.4917 15.9763 14.4917C15.1363 14.4797 14.4403 15.1768 14.4403 16.018ZM19.9723 16.03C19.9723 16.8713 20.6563 17.5684 21.5083 17.5684C22.3603 17.5684 23.0443 16.8713 23.0443 16.03C23.0443 15.1768 22.3603 14.4917 21.5083 14.4917C20.6563 14.4917 19.9723 15.1768 19.9723 16.03ZM10.4439 17.5684C9.60387 17.5684 8.90787 16.8713 8.90787 16.0301C8.90787 15.1768 9.59187 14.4917 10.4439 14.4917C11.2959 14.4917 11.9799 15.1768 11.9799 16.0301C11.9799 16.8713 11.2959 17.5563 10.4439 17.5684Z" fill="url(#paint0_linear_5626_10617)"/>
    <defs>
        <linearGradient id="paint0_linear_5626_10617" x1="4.00006" y1="12.4" x2="28.0001" y2="12.4" gradientUnits="userSpaceOnUse">
            <stop stop-color="#79D7FF"/>
            <stop offset="1" stop-color="#9161FF"/>
        </linearGradient>
    </defs>
</svg>

