<svg width="32" height="32" viewBox="0 0 32 32" fill="none" xmlns="http://www.w3.org/2000/svg">
    <path fill-rule="evenodd" clip-rule="evenodd" d="M3.99967 16.0182C3.99967 9.69662 9.05174 4 16.0238 4C22.8399 4 28 9.58846 28 15.9821C28 23.3974 21.9519 28.0003 15.9998 28.0003C14.0318 28.0003 11.8478 27.4715 10.0958 26.438C9.48375 26.0654 8.96774 25.789 8.30773 26.0053L5.8837 26.7264C5.27169 26.9187 4.71968 26.438 4.89969 25.789L5.7037 23.0969C5.8357 22.7243 5.8117 22.3277 5.6197 22.0153C4.58768 20.1164 3.99967 18.0372 3.99967 16.0182ZM19.9454 10.923C19.9454 10.2904 19.4326 9.77753 18.8 9.77753C18.1673 9.77753 17.6545 10.2904 17.6545 10.923V20.8231C17.6545 21.4558 18.1673 21.9686 18.8 21.9686C19.4326 21.9686 19.9454 21.4558 19.9454 20.8231V10.923ZM9.9998 11.7278C10.6324 11.7278 11.1453 12.2407 11.1453 12.8733L11.1453 18.8734C11.1453 19.506 10.6324 20.0188 9.9998 20.0188C9.36718 20.0188 8.85433 19.506 8.85433 18.8734L8.85433 12.8733C8.85433 12.2407 9.36718 11.7278 9.9998 11.7278ZM14.3998 12.9276C15.0324 12.9276 15.5452 13.4405 15.5452 14.0731V17.6732C15.5452 18.3058 15.0324 18.8186 14.3998 18.8186C13.7672 18.8186 13.2543 18.3058 13.2543 17.6732V14.0731C13.2543 13.4405 13.7672 12.9276 14.3998 12.9276ZM23.2 14.1685C23.8327 14.1685 24.3455 14.6814 24.3455 15.314V16.4322C24.3455 17.0648 23.8327 17.5777 23.2 17.5777C22.5674 17.5777 22.0546 17.0648 22.0546 16.4322V15.314C22.0546 14.6814 22.5674 14.1685 23.2 14.1685Z" fill="url(#paint0_linear_5626_10551)"/>
    <defs>
        <linearGradient id="paint0_linear_5626_10551" x1="3.99967" y1="12.4001" x2="28" y2="12.4001" gradientUnits="userSpaceOnUse">
            <stop stop-color="#79D7FF"/>
            <stop offset="1" stop-color="#9161FF"/>
        </linearGradient>
    </defs>
</svg>
