<svg width="26" height="28" viewBox="0 0 26 28" fill="none" xmlns="http://www.w3.org/2000/svg">
    <path d="M24.6326 23.9426L23.0738 22.3838C23.5534 21.6644 23.7932 20.825 23.7932 19.9857C23.7932 17.3478 21.6349 15.1895 18.997 15.1895C16.3591 15.1895 14.2008 17.3478 14.2008 19.9857C14.2008 22.6236 16.3591 24.7819 18.997 24.7819C19.8364 24.7819 20.6757 24.5421 21.3951 24.0625L22.9539 25.6213C23.1937 25.8611 23.9132 26.3407 24.6326 25.6213C25.1122 25.1416 25.1122 24.4222 24.6326 23.9426ZM18.997 22.3838C17.678 22.3838 16.5989 21.3047 16.5989 19.9857C16.5989 18.6667 17.678 17.5876 18.997 17.5876C20.316 17.5876 21.3951 18.6667 21.3951 19.9857C21.3951 21.3047 20.316 22.3838 18.997 22.3838Z" fill="url(#paint0_linear_5626_10845)"/>
    <path fill-rule="evenodd" clip-rule="evenodd" d="M1.3999 3.531C1.3999 2.20544 2.47448 1.13086 3.80004 1.13086H19.801C21.1265 1.13086 22.2011 2.20544 22.2011 3.531V13.5432C21.2356 13.0604 20.1475 12.7885 18.998 12.7885C15.0345 12.7885 11.8016 16.0213 11.8016 19.9848C11.8016 21.6158 12.349 23.123 13.2695 24.3322H3.80004C2.47448 24.3322 1.3999 23.2576 1.3999 21.9321V3.531ZM6.60111 14.7314C5.93833 14.7314 5.40104 15.2687 5.40104 15.9314C5.40104 16.5942 5.93833 17.1315 6.60111 17.1315H8.20121C8.86399 17.1315 9.40128 16.5942 9.40128 15.9314C9.40128 15.2687 8.86399 14.7314 8.20121 14.7314H6.60111ZM5.40104 11.1316C5.40104 10.4688 5.93833 9.93149 6.60111 9.93149H10.6013C11.2641 9.93149 11.8014 10.4688 11.8014 11.1316C11.8014 11.7943 11.2641 12.3316 10.6013 12.3316H6.60111C5.93833 12.3316 5.40104 11.7943 5.40104 11.1316ZM6.60111 5.13041C5.93833 5.13041 5.40104 5.6677 5.40104 6.33048C5.40104 6.99326 5.93833 7.53055 6.60111 7.53055H17.0017C17.6645 7.53055 18.2018 6.99326 18.2018 6.33048C18.2018 5.6677 17.6645 5.13041 17.0017 5.13041H6.60111Z" fill="url(#paint1_linear_5626_10845)"/>
    <defs>
        <linearGradient id="paint0_linear_5626_10845" x1="14.2008" y1="18.9736" x2="24.9923" y2="18.9736" gradientUnits="userSpaceOnUse">
            <stop stop-color="#79D7FF"/>
            <stop offset="1" stop-color="#9161FF"/>
        </linearGradient>
        <linearGradient id="paint1_linear_5626_10845" x1="1.3999" y1="9.25134" x2="22.2011" y2="9.25134" gradientUnits="userSpaceOnUse">
            <stop stop-color="#79D7FF"/>
            <stop offset="1" stop-color="#9161FF"/>
        </linearGradient>
    </defs>
</svg>
