<svg width="26" height="26" viewBox="0 0 26 26" fill="none" xmlns="http://www.w3.org/2000/svg">
    <path fill-rule="evenodd" clip-rule="evenodd" d="M6.25259 6.75058C6.25259 3.03627 9.28886 0 13.0032 0C16.7175 0 19.7537 3.03627 19.7537 6.75058C19.7537 10.4649 16.7175 13.5012 13.0032 13.5012C9.28886 13.5012 6.25259 10.4649 6.25259 6.75058ZM12.3935 20.2351C12.3935 18.3938 13.1216 16.7171 14.3045 15.478C13.8784 15.555 13.4433 15.5939 13.0033 15.5939C11.4704 15.5939 9.99649 15.1223 8.75838 14.2084C8.52253 14.0315 8.19827 13.9431 7.90351 14.0021C5.54523 14.3263 3.4228 15.6529 2.09628 17.6574C1.83097 18.0407 1.59512 18.4829 1.41829 18.8955C1.32988 19.0724 1.35933 19.2788 1.44774 19.4556C1.68359 19.8683 1.97835 20.2811 2.24366 20.6348C2.65634 21.1949 3.09853 21.696 3.59968 22.1677C4.01237 22.5803 4.48401 22.9636 4.95571 23.3468C7.28448 25.0861 10.085 25.9998 12.9738 25.9998C13.7372 25.9998 14.4943 25.936 15.2382 25.8101C13.5161 24.5541 12.3935 22.5214 12.3935 20.2351ZM14.1073 7.35428C14.1073 7.16927 14.1929 7.07232 14.2237 7.05619C15.0841 6.60693 15.6204 5.72675 15.6204 4.75997C15.6204 3.32751 14.4473 2.16667 13.0104 2.16667C11.5734 2.16667 10.4004 3.32751 10.4004 4.75997C10.4004 5.36488 10.8941 5.85136 11.4973 5.85136C12.1006 5.85136 12.5943 5.36488 12.5943 4.75997C12.5943 4.53632 12.7789 4.34945 13.0104 4.34945C13.2418 4.34945 13.4265 4.53632 13.4265 4.75997C13.4265 4.91174 13.3427 5.05112 13.204 5.1237C12.3977 5.545 11.9134 6.40712 11.9134 7.35428V7.57528C11.9134 8.18018 12.4071 8.66667 13.0104 8.66667C13.6136 8.66667 14.1073 8.18018 14.1073 7.57528V7.35428ZM11.9134 10.0667C11.9134 10.6716 12.4071 11.1581 13.0104 11.1581C13.6136 11.1581 14.1073 10.6716 14.1073 10.0667C14.1073 9.46182 13.6136 8.97534 13.0104 8.97534C12.4071 8.97534 11.9134 9.46182 11.9134 10.0667Z" fill="url(#paint0_linear_5626_10583)"/>
    <path d="M24.6899 24.0281L23.196 22.5342C23.6557 21.8448 23.8855 21.0404 23.8855 20.236C23.8855 17.708 21.8171 15.6396 19.2891 15.6396C16.7611 15.6396 14.6927 17.708 14.6927 20.236C14.6927 22.7641 16.7611 24.8324 19.2891 24.8324C20.0935 24.8324 20.8978 24.6026 21.5873 24.143L23.0811 25.6368C23.311 25.8666 24.0004 26.3263 24.6899 25.6368C25.1495 25.1772 25.1495 24.4877 24.6899 24.0281ZM19.2891 22.5342C18.0251 22.5342 16.9909 21.5 16.9909 20.236C16.9909 18.972 18.0251 17.9378 19.2891 17.9378C20.5531 17.9378 21.5873 18.972 21.5873 20.236C21.5873 21.5 20.5531 22.5342 19.2891 22.5342Z" fill="url(#paint1_linear_5626_10583)"/>
    <defs>
        <linearGradient id="paint0_linear_5626_10583" x1="1.3649" y1="9.09994" x2="19.7537" y2="9.09994" gradientUnits="userSpaceOnUse">
            <stop stop-color="#79D7FF"/>
            <stop offset="1" stop-color="#9161FF"/>
        </linearGradient>
        <linearGradient id="paint1_linear_5626_10583" x1="14.6927" y1="19.2661" x2="25.0346" y2="19.2661" gradientUnits="userSpaceOnUse">
            <stop stop-color="#79D7FF"/>
            <stop offset="1" stop-color="#9161FF"/>
        </linearGradient>
    </defs>
</svg>
