<svg width="139" height="140" viewBox="0 0 139 140" fill="none" xmlns="http://www.w3.org/2000/svg">
    <path fill-rule="evenodd" clip-rule="evenodd" d="M0.000488281 58.4213C0.000488281 29.6651 23.312 6.35352 52.0683 6.35352C80.8245 6.35352 104.136 29.6651 104.136 58.4213C104.136 87.1776 80.8245 110.489 52.0683 110.489C23.312 110.489 0.000488281 87.1776 0.000488281 58.4213ZM52.0743 36.7282C40.0925 36.7282 30.3794 46.4413 30.3794 58.4231C30.3794 62.417 27.1417 65.6547 23.1477 65.6547C19.1538 65.6547 15.9161 62.417 15.9161 58.4231C15.9161 38.4535 32.1047 22.2649 52.0743 22.2649C56.0682 22.2649 59.3059 25.5026 59.3059 29.4965C59.3059 33.4905 56.0682 36.7282 52.0743 36.7282ZM103.859 94.2961C101.333 92.5284 97.9035 92.8287 95.7239 95.0083L94.4319 96.3002C92.2523 98.4799 91.952 101.91 93.7197 104.435L110.847 128.903C114.811 134.566 122.927 135.276 127.815 130.388L129.812 128.391C134.7 123.504 133.989 115.387 128.326 111.423L103.859 94.2961Z" fill="url(#paint0_linear_5626_10513)"/>
    <defs>
        <linearGradient id="paint0_linear_5626_10513" x1="0.000488559" y1="50.9055" x2="133.068" y2="50.9055" gradientUnits="userSpaceOnUse">
            <stop stop-color="#79D7FF"/>
            <stop offset="1" stop-color="#9161FF"/>
        </linearGradient>
    </defs>
</svg>
