<svg width="177" height="32" viewBox="0 0 177 32" fill="none" xmlns="http://www.w3.org/2000/svg">
<path d="M16 15.0625C15.4831 15.0625 15.0625 15.4831 15.0625 16C15.0625 16.5169 15.4831 16.9375 16 16.9375C16.5169 16.9375 16.9375 16.5169 16.9375 16C16.9375 15.4831 16.5169 15.0625 16 15.0625Z" fill="url(#paint0_linear_309_13231)"/>
<circle cx="16" cy="16" r="16" fill="white"/>
<path d="M16 0C7.17756 0 0 7.17756 0 16C0 24.8224 7.17756 32 16 32C24.8224 32 32 24.8224 32 16C32 7.17756 24.8224 0 16 0ZM24.6621 8.66375L22.0105 11.3153C22.0104 11.3154 22.0104 11.3154 22.0104 11.3154C22.0103 11.3155 22.0103 11.3155 22.0103 11.3156L18.5376 14.7881C18.7137 15.1553 18.8125 15.5663 18.8125 16C18.8125 17.5508 17.5508 18.8125 16 18.8125C14.4492 18.8125 13.1875 17.5508 13.1875 16C13.1875 14.4492 14.4492 13.1875 16 13.1875C16.4337 13.1875 16.8446 13.2863 17.2118 13.4624L19.9751 10.6991C18.8346 9.84 17.4531 9.375 16 9.375C12.3469 9.375 9.375 12.3469 9.375 16C9.375 18.6396 10.9393 21.0247 13.3603 22.0764C13.8351 22.2827 14.0529 22.8349 13.8466 23.3097C13.6931 23.6629 13.3482 23.8739 12.9862 23.8739C12.8615 23.8739 12.7349 23.8489 12.6132 23.7961C9.50706 22.4467 7.5 19.3866 7.5 16C7.5 11.3131 11.3131 7.5 16 7.5C17.9549 7.5 19.8088 8.15606 21.3111 9.36306L22.643 8.03119C20.7796 6.47544 18.4447 5.625 16 5.625C10.2792 5.625 5.625 10.2792 5.625 16C5.625 21.7208 10.2792 26.375 16 26.375C17.7035 26.375 19.3976 25.9498 20.8993 25.1453C21.3556 24.9009 21.9239 25.0726 22.1684 25.529C22.4129 25.9854 22.2411 26.5536 21.7847 26.7981C20.0117 27.7479 18.0114 28.25 16 28.25C9.24531 28.25 3.75 22.7547 3.75 16C3.75 9.24531 9.24531 3.75 16 3.75C19.1381 3.75 22.1236 4.936 24.4062 7.08944C24.4506 7.13131 24.619 7.29494 24.6621 7.338C25.0282 7.70406 25.0282 8.29762 24.6621 8.66375Z" fill="url(#paint1_linear_309_13231)"/>
<path d="M47.688 22.252C46.668 22.252 45.678 22.126 44.718 21.874C43.758 21.622 42.978 21.286 42.378 20.866L43.548 18.238C44.112 18.61 44.766 18.91 45.51 19.138C46.254 19.366 46.986 19.48 47.706 19.48C49.074 19.48 49.758 19.138 49.758 18.454C49.758 18.094 49.56 17.83 49.164 17.662C48.78 17.482 48.156 17.296 47.292 17.104C46.344 16.9 45.552 16.684 44.916 16.456C44.28 16.216 43.734 15.838 43.278 15.322C42.822 14.806 42.594 14.11 42.594 13.234C42.594 12.466 42.804 11.776 43.224 11.164C43.644 10.54 44.268 10.048 45.096 9.688C45.936 9.328 46.962 9.148 48.174 9.148C49.002 9.148 49.818 9.244 50.622 9.436C51.426 9.616 52.134 9.886 52.746 10.246L51.648 12.892C50.448 12.244 49.284 11.92 48.156 11.92C47.448 11.92 46.932 12.028 46.608 12.244C46.284 12.448 46.122 12.718 46.122 13.054C46.122 13.39 46.314 13.642 46.698 13.81C47.082 13.978 47.7 14.152 48.552 14.332C49.512 14.536 50.304 14.758 50.928 14.998C51.564 15.226 52.11 15.598 52.566 16.114C53.034 16.618 53.268 17.308 53.268 18.184C53.268 18.94 53.058 19.624 52.638 20.236C52.218 20.848 51.588 21.34 50.748 21.712C49.908 22.072 48.888 22.252 47.688 22.252ZM61.1963 22.252C59.8763 22.252 58.6883 21.976 57.6323 21.424C56.5883 20.86 55.7663 20.08 55.1663 19.084C54.5663 18.088 54.2663 16.96 54.2663 15.7C54.2663 14.44 54.5663 13.312 55.1663 12.316C55.7663 11.32 56.5883 10.546 57.6323 9.994C58.6883 9.43 59.8763 9.148 61.1963 9.148C62.3483 9.148 63.3863 9.352 64.3103 9.76C65.2343 10.168 66.0023 10.756 66.6143 11.524L64.3463 13.576C63.5303 12.592 62.5403 12.1 61.3763 12.1C60.6923 12.1 60.0803 12.25 59.5403 12.55C59.0123 12.85 58.5983 13.276 58.2983 13.828C58.0103 14.368 57.8663 14.992 57.8663 15.7C57.8663 16.408 58.0103 17.038 58.2983 17.59C58.5983 18.13 59.0123 18.55 59.5403 18.85C60.0803 19.15 60.6923 19.3 61.3763 19.3C62.5403 19.3 63.5303 18.808 64.3463 17.824L66.6143 19.876C66.0023 20.644 65.2343 21.232 64.3103 21.64C63.3863 22.048 62.3483 22.252 61.1963 22.252ZM76.4344 19.552H71.1064L70.1164 22H66.4804L72.0424 9.4H75.5524L81.1324 22H77.4244L76.4344 19.552ZM75.3904 16.924L73.7704 12.892L72.1504 16.924H75.3904ZM94.1308 9.4V22H91.1968L85.6348 15.286V22H82.1428V9.4H85.0768L90.6388 16.114V9.4H94.1308ZM108.633 9.4V22H105.699L100.137 15.286V22H96.6448V9.4H99.5788L105.141 16.114V9.4H108.633ZM121.263 19.246V22H111.147V9.4H121.029V12.154H114.675V14.278H120.273V16.942H114.675V19.246H121.263ZM128.748 18.652H126.804V22H123.24V9.4H129C130.14 9.4 131.13 9.592 131.97 9.976C132.81 10.348 133.458 10.888 133.914 11.596C134.37 12.292 134.598 13.114 134.598 14.062C134.598 14.974 134.382 15.772 133.95 16.456C133.53 17.128 132.924 17.656 132.132 18.04L134.85 22H131.034L128.748 18.652ZM130.998 14.062C130.998 13.474 130.812 13.018 130.44 12.694C130.068 12.37 129.516 12.208 128.784 12.208H126.804V15.898H128.784C129.516 15.898 130.068 15.742 130.44 15.43C130.812 15.106 130.998 14.65 130.998 14.062ZM142.919 22.252C141.587 22.252 140.387 21.97 139.319 21.406C138.263 20.842 137.429 20.062 136.817 19.066C136.217 18.07 135.917 16.948 135.917 15.7C135.917 14.452 136.217 13.33 136.817 12.334C137.429 11.338 138.263 10.558 139.319 9.994C140.387 9.43 141.587 9.148 142.919 9.148C144.251 9.148 145.445 9.43 146.501 9.994C147.569 10.558 148.403 11.338 149.003 12.334C149.615 13.33 149.921 14.452 149.921 15.7C149.921 16.948 149.615 18.07 149.003 19.066C148.403 20.062 147.569 20.842 146.501 21.406C145.445 21.97 144.251 22.252 142.919 22.252ZM142.919 19.3C143.555 19.3 144.131 19.15 144.647 18.85C145.163 18.55 145.571 18.13 145.871 17.59C146.171 17.038 146.321 16.408 146.321 15.7C146.321 14.992 146.171 14.368 145.871 13.828C145.571 13.276 145.163 12.85 144.647 12.55C144.131 12.25 143.555 12.1 142.919 12.1C142.283 12.1 141.707 12.25 141.191 12.55C140.675 12.85 140.267 13.276 139.967 13.828C139.667 14.368 139.517 14.992 139.517 15.7C139.517 16.408 139.667 17.038 139.967 17.59C140.267 18.13 140.675 18.55 141.191 18.85C141.707 19.15 142.283 19.3 142.919 19.3Z" fill="white"/>
<path d="M153.065 22.162C152.489 22.162 152.003 21.97 151.607 21.586C151.211 21.202 151.013 20.716 151.013 20.128C151.013 19.528 151.205 19.042 151.589 18.67C151.985 18.298 152.477 18.112 153.065 18.112C153.665 18.112 154.157 18.298 154.541 18.67C154.925 19.042 155.117 19.528 155.117 20.128C155.117 20.716 154.919 21.202 154.523 21.586C154.139 21.97 153.653 22.162 153.065 22.162Z" fill="#3AC7C7"/>
<path d="M157.515 9.4H159.315V22H157.515V9.4ZM168.775 22.144C167.503 22.144 166.357 21.868 165.337 21.316C164.317 20.752 163.513 19.978 162.925 18.994C162.349 18.01 162.061 16.912 162.061 15.7C162.061 14.488 162.349 13.39 162.925 12.406C163.513 11.422 164.317 10.654 165.337 10.102C166.357 9.538 167.503 9.256 168.775 9.256C170.035 9.256 171.175 9.538 172.195 10.102C173.215 10.654 174.013 11.422 174.589 12.406C175.165 13.378 175.453 14.476 175.453 15.7C175.453 16.924 175.165 18.028 174.589 19.012C174.013 19.984 173.215 20.752 172.195 21.316C171.175 21.868 170.035 22.144 168.775 22.144ZM168.775 20.542C169.699 20.542 170.527 20.332 171.259 19.912C172.003 19.492 172.585 18.916 173.005 18.184C173.437 17.44 173.653 16.612 173.653 15.7C173.653 14.788 173.437 13.966 173.005 13.234C172.585 12.49 172.003 11.908 171.259 11.488C170.527 11.068 169.699 10.858 168.775 10.858C167.851 10.858 167.011 11.068 166.255 11.488C165.511 11.908 164.923 12.49 164.491 13.234C164.071 13.966 163.861 14.788 163.861 15.7C163.861 16.612 164.071 17.44 164.491 18.184C164.923 18.916 165.511 19.492 166.255 19.912C167.011 20.332 167.851 20.542 168.775 20.542Z" fill="#C4C4C4"/>
<defs>
<linearGradient id="paint0_linear_309_13231" x1="16.0001" y1="16.9377" x2="16.0001" y2="14.6363" gradientUnits="userSpaceOnUse">
<stop stop-color="#3AC7C7"/>
<stop offset="1" stop-color="#B132FF"/>
</linearGradient>
<linearGradient id="paint1_linear_309_13231" x1="16.0018" y1="32.003" x2="16.0018" y2="-7.2734" gradientUnits="userSpaceOnUse">
<stop stop-color="#3AC7C7"/>
<stop offset="1" stop-color="#B132FF"/>
</linearGradient>
</defs>
</svg>
