<svg width="139" height="30" viewBox="0 0 139 30" fill="none" xmlns="http://www.w3.org/2000/svg">
<path d="M28.4853 20.5178L20.6364 20.6648C20.3718 20.6648 20.1072 20.8118 19.9308 21.047C19.1372 22.311 16.6678 25.8386 14.463 28.3079C13.9927 28.7489 13.2284 28.6313 12.905 28.0727C12.8462 27.9552 12.758 27.8376 12.758 27.8082C12.2877 26.7205 10.8473 20.4296 10.2005 19.6359C9.40685 18.6952 2.58677 16.9902 1.52849 16.6375C0.76417 16.3729 0.558391 15.3734 1.14633 14.8148C2.88074 13.1686 5.67343 10.8463 7.67238 9.52349C7.93697 9.37649 8.11333 9.08249 8.11333 8.78849L7.99577 1.3218C7.99577 0.733866 8.58371 0.292918 9.1422 0.557489C10.8178 1.26301 13.8163 3.14439 15.6977 4.79061C15.9035 5.02577 16.2268 5.11395 16.5208 5.02577C17.8731 4.64362 21.6652 3.55594 25.3692 3.35017C25.869 3.32078 26.2805 3.73233 26.2217 4.26147C26.0454 6.02528 25.5456 9.8174 24.7225 12.3162C24.6343 12.5807 24.6637 12.8453 24.8695 13.0804C25.6632 14.1093 27.5446 16.6962 29.1908 19.2831C29.4848 19.8417 29.132 20.5178 28.4853 20.5178Z" fill="white"/>
<path d="M19.578 11.3167C19.578 12.2867 18.7844 13.1099 17.8142 13.1099C16.8442 13.1099 16.0505 12.3162 16.0505 11.3167C16.0505 10.3465 16.8442 9.52349 17.8142 9.52349C18.7844 9.52349 19.578 10.3465 19.578 11.3167ZM28.4853 20.5178L20.6364 20.6648C20.3718 20.6648 20.1071 20.8118 19.9308 21.047C19.1372 22.311 16.6678 25.8386 14.463 28.3079C13.9927 28.7489 13.2284 28.6313 12.905 28.0727C12.8462 27.9552 12.758 27.8376 12.758 27.8082C12.2877 26.7205 10.8473 20.4296 10.2005 19.6359C9.40685 18.6952 2.58677 16.9902 1.52849 16.6375C0.76417 16.3729 0.558391 15.3734 1.14633 14.8148C2.88074 13.1686 5.67343 10.8463 7.67238 9.52349C7.93697 9.37649 8.11333 9.08249 8.11333 8.78849L7.99577 1.3218C7.99577 0.733866 8.58371 0.292918 9.1422 0.557489C10.8178 1.26301 13.8163 3.14439 15.6977 4.79061C15.9035 5.02577 16.2268 5.11395 16.5208 5.02577C17.8731 4.64362 21.6652 3.55594 25.3692 3.35017C25.869 3.32078 26.2805 3.73233 26.2217 4.26147C26.0454 6.02528 25.5456 9.8174 24.7225 12.3162C24.6343 12.5807 24.6637 12.8453 24.8695 13.0804C25.6632 14.1093 27.5446 16.6962 29.1908 19.2831C29.4848 19.8417 29.132 20.5178 28.4853 20.5178ZM23.87 5.96648C23.9288 5.76069 23.723 5.55491 23.4878 5.58433C15.5507 6.40743 8.28974 12.1986 5.93798 14.2857C5.55583 14.6091 5.67343 15.2264 6.14377 15.4028C6.14377 15.4028 11.2 16.2259 12.4053 17.2548C13.2872 18.0191 14.1397 22.6049 14.1397 22.6049C14.3161 23.0459 14.8746 23.1341 15.198 22.8107C22.0473 15.785 23.6054 7.90666 23.87 5.96648Z" fill="url(#paint0_linear_7711_19938)"/>
<path d="M10.4348 25.0739C10.376 24.8093 10.2878 24.5447 10.1995 24.2507L7.67133 26.9259C7.49492 27.1317 7.40674 27.3963 7.40674 27.6609C7.40674 27.9548 7.52435 28.2195 7.73013 28.3958C7.9065 28.5722 8.17109 28.6604 8.43568 28.6604C8.72963 28.6604 8.99428 28.5428 9.20006 28.3371L10.8757 26.5731C10.7288 26.1616 10.5818 25.6618 10.4348 25.0739Z" fill="url(#paint1_linear_7711_19938)"/>
<path d="M9.05196 20.5763C8.84618 20.4293 8.43462 20.2824 7.96425 20.1059L1.67336 26.5144C1.46759 26.7202 1.37939 26.9848 1.37939 27.2493C1.37939 27.5139 1.46759 27.8079 1.67336 27.9843C1.87914 28.1606 2.14371 28.2783 2.40828 28.2783C2.67285 28.2783 2.93742 28.19 3.1726 27.9843L9.40466 21.6345C9.2871 21.1936 9.16953 20.8115 9.05196 20.5763Z" fill="url(#paint2_linear_7711_19938)"/>
<path d="M3.37928 18.6659L1.29203 20.7825C1.11564 20.9883 0.998047 21.2529 0.998047 21.5175C0.998047 21.7821 1.08624 22.0761 1.29203 22.2524C1.49781 22.4289 1.76239 22.5464 2.02697 22.5464C2.29155 22.5464 2.58553 22.4289 2.76192 22.2524L5.67231 19.3127C4.84915 19.1069 4.02603 18.8717 3.37928 18.6659Z" fill="url(#paint3_linear_7711_19938)"/>
<path d="M10.4348 25.0739C10.376 24.8093 10.2878 24.5447 10.1995 24.2507L7.67133 26.9259C7.49492 27.1317 7.40674 27.3963 7.40674 27.6609C7.40674 27.9548 7.52435 28.2195 7.73013 28.3958C7.9065 28.5722 8.17109 28.6604 8.43568 28.6604C8.72963 28.6604 8.99428 28.5428 9.20006 28.3371L10.8757 26.5731C10.7288 26.1616 10.5818 25.6618 10.4348 25.0739Z" fill="url(#paint4_linear_7711_19938)" stroke="url(#paint5_linear_7711_19938)" stroke-width="0.949631"/>
<path d="M3.37928 18.6659L1.29203 20.7825C1.11564 20.9883 0.998047 21.2529 0.998047 21.5175C0.998047 21.7821 1.08624 22.0761 1.29203 22.2524C1.49781 22.4289 1.76239 22.5464 2.02697 22.5464C2.29155 22.5464 2.58553 22.4289 2.76192 22.2524L5.67231 19.3127C4.84915 19.1069 4.02603 18.8717 3.37928 18.6659Z" stroke="url(#paint6_linear_7711_19938)" stroke-width="0.949631"/>
<path d="M9.05196 20.5763C8.84618 20.4293 8.43462 20.2824 7.96425 20.1059L1.67336 26.5144C1.46759 26.7202 1.37939 26.9848 1.37939 27.2493C1.37939 27.5139 1.46759 27.8079 1.67336 27.9843C1.87914 28.1606 2.14371 28.2783 2.40828 28.2783C2.67285 28.2783 2.93742 28.19 3.1726 27.9843L9.40466 21.6345C9.2871 21.1936 9.16953 20.8115 9.05196 20.5763Z" stroke="url(#paint7_linear_7711_19938)" stroke-opacity="0.5" stroke-width="0.949631"/>
<path d="M28.4838 20.5178L20.6349 20.6648C20.3703 20.6648 20.1058 20.8118 19.9293 21.047C19.1357 22.311 16.6664 25.8386 14.4615 28.3079C13.9913 28.7489 13.2269 28.6313 12.9036 28.0727C12.8448 27.9552 12.7566 27.8376 12.7566 27.8082C12.2862 26.7205 10.8458 20.4296 10.199 19.6359C9.40538 18.6952 2.5853 16.9902 1.52702 16.6375C0.762705 16.3729 0.556926 15.3734 1.14486 14.8148C2.87927 13.1686 5.67197 10.8463 7.67092 9.52349C7.93551 9.37649 8.11187 9.08249 8.11187 8.78857L7.99431 1.3218C7.99431 0.733867 8.58224 0.292918 9.14073 0.557489C10.8164 1.26301 13.8148 3.14439 15.6962 4.79061C15.902 5.02577 16.2254 5.11395 16.5194 5.02577C17.8716 4.64362 21.6637 3.55594 25.3678 3.35017C25.8676 3.32078 26.279 3.73233 26.2203 4.26147C26.0439 6.02528 25.5441 9.8174 24.721 12.3162C24.6329 12.5807 24.6622 12.8453 24.868 13.0804C25.6618 14.1093 27.5431 16.6962 29.1893 19.2831C29.4833 19.8417 29.1305 20.5178 28.4838 20.5178Z" stroke="url(#paint8_linear_7711_19938)" stroke-width="0.949631"/>
<path fill-rule="evenodd" clip-rule="evenodd" d="M73.5697 9.8705V21.7125C73.5697 24.3749 72.5935 25.7616 70.2222 25.7616C69.4695 25.7616 68.7163 25.5675 67.9912 25.096L68.8 23.3488C69.246 23.5706 69.7205 23.6815 70.1665 23.6815C71.2264 23.6538 71.3938 22.9327 71.3938 21.7125V9.8705H73.5697ZM71.0871 6.76433C71.0871 8.59477 73.8484 8.59477 73.8484 6.76433C73.8484 4.96169 71.0871 4.96169 71.0871 6.76433ZM47.3227 6.79199C47.3227 8.62237 44.5615 8.62237 44.5615 6.79199C44.5615 5.01705 47.3227 5.01705 47.3227 6.79199ZM44.8402 20.4644V9.87037H47.0716V20.4644H44.8402ZM38.0921 11.507C39.1241 11.507 40.0445 11.7288 40.8813 12.5053L42.1644 11.0632C40.965 10.0094 39.7098 9.64883 38.0642 9.64883C36.0838 9.64883 33.6572 10.5363 33.6572 12.8659C33.685 15.1954 35.9722 15.8334 37.9805 16.0275C39.5425 16.1939 40.463 16.5543 40.4351 17.4973C40.4072 18.4679 39.2356 18.8562 38.1757 18.8562C36.9206 18.8562 35.4423 18.3848 34.4381 17.3032L33.2666 18.8562C34.6613 20.4093 36.3906 20.7976 38.12 20.7976C40.8813 20.7976 42.6106 19.4386 42.6385 17.4696C42.6664 14.7518 40.1003 14.308 38.1479 14.1416C36.7811 14.0029 35.8607 13.6701 35.8327 12.7827C35.8327 11.923 36.7253 11.4792 38.0921 11.507ZM53.4873 6.87531V9.92597H56.5837V11.8396H53.4596V16.8592C53.4596 17.9686 53.9614 18.6064 54.9936 18.6064C55.4121 18.6064 55.9142 18.4678 56.3602 18.2459L57.0017 20.1317C56.2765 20.4646 55.635 20.6032 54.8819 20.6032C52.5667 20.6587 51.2558 19.3552 51.2558 16.8869V11.8673H49.2197V9.9537H51.2558V7.09717L53.4873 6.87531ZM63.9467 18.6621C62.0219 18.6621 60.683 17.6082 60.488 15.9998L69.0788 16.0275C69.4972 11.7288 67.182 9.64883 63.7513 9.64883C60.4319 9.64883 58.1729 11.923 58.1729 15.14C58.1729 18.4958 60.4043 20.7144 63.8906 20.7144C65.5363 20.7144 67.3774 20.1042 68.4654 18.9117L67.0147 17.525C66.3732 18.2461 65.0342 18.6621 63.9467 18.6621ZM63.8069 11.5902C65.5924 11.5902 66.8197 12.4776 66.959 14.1416H60.5156C60.8503 12.4776 62.1893 11.5902 63.8069 11.5902ZM87.2655 9.89837H85.1177L85.0617 11.59C84.392 10.3698 82.9415 9.67645 81.4358 9.67645C78.3674 9.67645 75.9409 11.6455 75.9409 15.1676C75.9409 18.7729 78.2837 20.7697 81.3796 20.742C82.6909 20.742 84.3361 20.1041 85.0334 18.7452L85.1453 20.4646H87.2655V9.89837ZM81.6304 18.6897C79.7339 18.6897 78.172 17.3586 78.172 15.1676C78.172 13.0044 79.7063 11.701 81.6304 11.701C86.205 11.701 86.205 18.6897 81.6304 18.6897ZM92.5092 5.48884V11.5347C93.2065 10.2867 94.9351 9.64882 96.2462 9.64882C99.3151 9.64882 101.63 11.5624 101.63 15.14C101.63 18.6344 99.2868 20.6312 96.1911 20.6312C94.7681 20.6312 93.3459 20.1042 92.5092 18.7453L92.3697 20.4093H90.2778V5.43338L92.5092 5.48884ZM92.6211 15.1677C92.6211 17.2477 94.1551 18.6067 96.0233 18.6067C97.8646 18.6067 99.3703 17.2755 99.3703 15.1677C99.3703 13.0046 97.8646 11.7289 96.0233 11.7289C94.1827 11.7566 92.6211 13.1432 92.6211 15.1677ZM106.205 11.5347V5.48884L103.974 5.43338V20.4093H106.066L106.205 18.7453C107.042 20.1042 108.464 20.6312 109.887 20.6312C112.983 20.6312 115.326 18.6344 115.326 15.14C115.326 11.5624 113.011 9.64882 109.943 9.64882C108.632 9.64882 106.902 10.2867 106.205 11.5347ZM109.72 18.6067C107.85 18.6067 106.316 17.2477 106.316 15.1677C106.316 13.1432 107.879 11.7566 109.72 11.7289C111.56 11.7289 113.066 13.0046 113.066 15.1677C113.066 17.2755 111.56 18.6067 109.72 18.6067ZM119.341 15.9998C119.536 17.6082 120.876 18.6621 122.8 18.6621C123.888 18.6621 125.226 18.2461 125.868 17.525L127.318 18.9117C126.23 20.1042 124.39 20.7144 122.744 20.7144C119.257 20.7144 117.026 18.4958 117.026 15.14C117.026 11.923 119.286 9.64883 122.604 9.64883C126.036 9.64883 128.351 11.7288 127.932 16.0275L119.341 15.9998ZM125.812 14.1416C125.672 12.4776 124.446 11.5902 122.66 11.5902C121.043 11.5902 119.704 12.4776 119.369 14.1416H125.812ZM132.423 11.2851L132.284 9.8984L130.191 9.84294V20.4093H132.423V14.6963C132.423 12.755 133.762 11.812 135.296 11.812C136.105 11.812 136.635 12.0339 137.164 12.4499L138.169 10.5363C137.583 10.0094 136.579 9.64883 135.547 9.64883C134.404 9.64883 133.204 9.92613 132.423 11.2851Z" fill="#556485"/>
<defs>
<linearGradient id="paint0_linear_7711_19938" x1="25.0388" y1="4.10198" x2="7.71226" y2="21.4286" gradientUnits="userSpaceOnUse">
<stop offset="0.1745" stop-color="#52BFCA"/>
<stop offset="0.9163" stop-color="#7238DF"/>
</linearGradient>
<linearGradient id="paint1_linear_7711_19938" x1="5.13675" y1="30.7811" x2="11.9302" y2="24.1033" gradientUnits="userSpaceOnUse">
<stop offset="0.1875" stop-color="#25E2EA"/>
<stop offset="1" stop-color="#19A6D1"/>
</linearGradient>
<linearGradient id="paint2_linear_7711_19938" x1="-3.92788" y1="33.41" x2="11.2274" y2="18.5126" gradientUnits="userSpaceOnUse">
<stop stop-color="#A443FD"/>
<stop offset="1" stop-color="#A959F3"/>
</linearGradient>
<linearGradient id="paint3_linear_7711_19938" x1="-1.49007" y1="24.9673" x2="6.0216" y2="17.5835" gradientUnits="userSpaceOnUse">
<stop offset="0.3958" stop-color="#E55EC4"/>
<stop offset="1" stop-color="#8225D0"/>
</linearGradient>
<linearGradient id="paint4_linear_7711_19938" x1="5.13675" y1="30.7811" x2="11.9302" y2="24.1033" gradientUnits="userSpaceOnUse">
<stop offset="0.1875" stop-color="#25E2EA"/>
<stop offset="1" stop-color="#19A6D1"/>
</linearGradient>
<linearGradient id="paint5_linear_7711_19938" x1="7.40674" y1="28.8735" x2="9.99327" y2="26.1908" gradientUnits="userSpaceOnUse">
<stop/>
<stop offset="0.0001" stop-color="#E4FCFF"/>
<stop offset="1" stop-color="#E4FCFF" stop-opacity="0"/>
</linearGradient>
<linearGradient id="paint6_linear_7711_19938" x1="0.998047" y1="22.4402" x2="4.3902" y2="18.9741" gradientUnits="userSpaceOnUse">
<stop stop-color="#FFF5FE"/>
<stop offset="0.769332" stop-color="#FFF5FE" stop-opacity="0"/>
</linearGradient>
<linearGradient id="paint7_linear_7711_19938" x1="1.70662" y1="28.019" x2="8.99503" y2="20.5643" gradientUnits="userSpaceOnUse">
<stop stop-color="#F6EDFE"/>
<stop offset="0.850896" stop-color="#A851F8" stop-opacity="0"/>
</linearGradient>
<linearGradient id="paint8_linear_7711_19938" x1="26.3977" y1="3.16266" x2="7.54761" y2="22.9387" gradientUnits="userSpaceOnUse">
<stop offset="0.00924772" stop-color="#2D9FAB"/>
<stop offset="0.0885417" stop-color="#2D9FAB" stop-opacity="0.823892"/>
<stop offset="0.171875" stop-color="#2D9FAB" stop-opacity="0.8"/>
<stop offset="0.302083" stop-color="#2D9FAB" stop-opacity="0.8"/>
<stop offset="1" stop-color="white" stop-opacity="0.5"/>
</linearGradient>
</defs>
</svg>
