<svg width="127" height="44" viewBox="0 0 127 44" fill="none" xmlns="http://www.w3.org/2000/svg">
<rect x="1.07212" y="0.384616" width="124.898" height="43.2307" rx="8.61538" stroke="white" stroke-opacity="0.4" stroke-width="0.769232"/>
<path d="M29.9972 19.8813H28.7946V16.691C28.7946 15.788 28.6153 14.9119 28.2617 14.0861C27.9208 13.2891 27.4322 12.5737 26.8104 11.9596C26.1887 11.3454 25.4645 10.8632 24.6578 10.5259C23.8224 10.1771 22.9355 10 22.0214 10C21.1073 10 20.2204 10.1771 19.3844 10.5264C18.5777 10.8632 17.8535 11.3459 17.2318 11.9601C16.6101 12.5742 16.1219 13.2896 15.7805 14.0866C15.4269 14.9124 15.2477 15.7885 15.2477 16.6915V19.8818H14.0451C13.2956 19.8818 12.6875 20.4821 12.6875 21.2229V32.6589C12.6875 33.3992 13.2951 34 14.0451 34H29.9967C30.7461 34 31.3542 33.3997 31.3542 32.6589V21.2229C31.3542 20.4826 30.7466 19.8818 29.9967 19.8818L29.9972 19.8813ZM17.2391 16.691C17.2391 15.4291 17.7364 14.243 18.6399 13.3506C19.5433 12.4581 20.7439 11.9668 22.0214 11.9668C23.2988 11.9668 24.4994 12.4581 25.4029 13.3506C26.3063 14.243 26.8036 15.4291 26.8036 16.691V19.8813H17.2391V16.691ZM22.6606 27.2422V29.8697H21.3681V27.235C20.8984 26.9994 20.5759 26.5177 20.5759 25.9616C20.5759 25.1728 21.2229 24.5337 22.0214 24.5337C22.8199 24.5337 23.4668 25.1728 23.4668 25.9616C23.4668 26.5235 23.138 27.0095 22.6606 27.2422Z" fill="#77BC20"/>
<path d="M29.9972 19.8813H28.7946V16.691C28.7946 15.788 28.6153 14.9119 28.2617 14.0861C27.9208 13.2891 27.4322 12.5737 26.8104 11.9596C26.1887 11.3454 25.4645 10.8632 24.6578 10.5259C23.8224 10.1771 22.9355 10 22.0214 10C21.1073 10 20.2204 10.1771 19.3844 10.5264C18.5777 10.8632 17.8535 11.3459 17.2318 11.9601C16.6101 12.5742 16.1219 13.2896 15.7805 14.0866C15.4269 14.9124 15.2477 15.7885 15.2477 16.6915V19.8818H14.0451C13.2956 19.8818 12.6875 20.4821 12.6875 21.2229V32.6589C12.6875 33.3992 13.2951 34 14.0451 34H29.9967C30.7461 34 31.3542 33.3997 31.3542 32.6589V21.2229C31.3542 20.4826 30.7466 19.8818 29.9967 19.8818L29.9972 19.8813ZM17.2391 16.691C17.2391 15.4291 17.7364 14.243 18.6399 13.3506C19.5433 12.4581 20.7439 11.9668 22.0214 11.9668C23.2988 11.9668 24.4994 12.4581 25.4029 13.3506C26.3063 14.243 26.8036 15.4291 26.8036 16.691V19.8813H17.2391V16.691ZM22.6606 27.2422V29.8697H21.3681V27.235C20.8984 26.9994 20.5759 26.5177 20.5759 25.9616C20.5759 25.1728 21.2229 24.5337 22.0214 24.5337C22.8199 24.5337 23.4668 25.1728 23.4668 25.9616C23.4668 26.5235 23.138 27.0095 22.6606 27.2422Z" fill="white"/>
<path d="M45.4189 23.68C44.4349 23.68 43.4929 23.542 42.5929 23.266C41.6929 22.978 40.9789 22.612 40.4509 22.168L41.2609 20.35C41.7649 20.746 42.3889 21.076 43.1329 21.34C43.8769 21.604 44.6389 21.736 45.4189 21.736C46.0789 21.736 46.6129 21.664 47.0209 21.52C47.4289 21.376 47.7289 21.184 47.9209 20.944C48.1129 20.692 48.2089 20.41 48.2089 20.098C48.2089 19.714 48.0709 19.408 47.7949 19.18C47.5189 18.94 47.1589 18.754 46.7149 18.622C46.2829 18.478 45.7969 18.346 45.2569 18.226C44.7289 18.106 44.1949 17.968 43.6549 17.812C43.1269 17.644 42.6409 17.434 42.1969 17.182C41.7649 16.918 41.4109 16.57 41.1349 16.138C40.8589 15.706 40.7209 15.154 40.7209 14.482C40.7209 13.798 40.9009 13.174 41.2609 12.61C41.6329 12.034 42.1909 11.578 42.9349 11.242C43.6909 10.894 44.6449 10.72 45.7969 10.72C46.5529 10.72 47.3029 10.816 48.0469 11.008C48.7909 11.2 49.4389 11.476 49.9909 11.836L49.2529 13.654C48.6889 13.318 48.1069 13.072 47.5069 12.916C46.9069 12.748 46.3309 12.664 45.7789 12.664C45.1309 12.664 44.6029 12.742 44.1949 12.898C43.7989 13.054 43.5049 13.258 43.3129 13.51C43.1329 13.762 43.0429 14.05 43.0429 14.374C43.0429 14.758 43.1749 15.07 43.4389 15.31C43.7149 15.538 44.0689 15.718 44.5009 15.85C44.9449 15.982 45.4369 16.114 45.9769 16.246C46.5169 16.366 47.0509 16.504 47.5789 16.66C48.1189 16.816 48.6049 17.02 49.0369 17.272C49.4809 17.524 49.8349 17.866 50.0989 18.298C50.3749 18.73 50.5129 19.276 50.5129 19.936C50.5129 20.608 50.3269 21.232 49.9549 21.808C49.5949 22.372 49.0369 22.828 48.2809 23.176C47.5249 23.512 46.5709 23.68 45.4189 23.68ZM54.6332 16.138H60.8972V18.064H54.6332V16.138ZM54.8132 21.538H61.9232V23.5H52.4732V10.9H61.6712V12.862H54.8132V21.538ZM70.0038 23.68C69.0438 23.68 68.1498 23.524 67.3218 23.212C66.5058 22.888 65.7918 22.438 65.1798 21.862C64.5798 21.274 64.1118 20.584 63.7758 19.792C63.4398 19 63.2718 18.136 63.2718 17.2C63.2718 16.264 63.4398 15.4 63.7758 14.608C64.1118 13.816 64.5858 13.132 65.1978 12.556C65.8098 11.968 66.5238 11.518 67.3398 11.206C68.1558 10.882 69.0498 10.72 70.0218 10.72C71.0538 10.72 71.9958 10.9 72.8478 11.26C73.6998 11.608 74.4198 12.13 75.0078 12.826L73.4958 14.248C73.0398 13.756 72.5298 13.39 71.9658 13.15C71.4018 12.898 70.7898 12.772 70.1298 12.772C69.4698 12.772 68.8638 12.88 68.3118 13.096C67.7718 13.312 67.2978 13.618 66.8898 14.014C66.4938 14.41 66.1818 14.878 65.9538 15.418C65.7378 15.958 65.6298 16.552 65.6298 17.2C65.6298 17.848 65.7378 18.442 65.9538 18.982C66.1818 19.522 66.4938 19.99 66.8898 20.386C67.2978 20.782 67.7718 21.088 68.3118 21.304C68.8638 21.52 69.4698 21.628 70.1298 21.628C70.7898 21.628 71.4018 21.508 71.9658 21.268C72.5298 21.016 73.0398 20.638 73.4958 20.134L75.0078 21.574C74.4198 22.258 73.6998 22.78 72.8478 23.14C71.9958 23.5 71.0478 23.68 70.0038 23.68ZM82.2904 23.68C80.5624 23.68 79.2064 23.194 78.2224 22.222C77.2504 21.25 76.7644 19.846 76.7644 18.01V10.9H79.1044V17.92C79.1044 19.216 79.3804 20.158 79.9324 20.746C80.4964 21.334 81.2884 21.628 82.3084 21.628C83.3284 21.628 84.1144 21.334 84.6664 20.746C85.2184 20.158 85.4944 19.216 85.4944 17.92V10.9H87.7984V18.01C87.7984 19.846 87.3064 21.25 86.3224 22.222C85.3504 23.194 84.0064 23.68 82.2904 23.68ZM90.7155 23.5V10.9H95.8995C97.0155 10.9 97.9695 11.08 98.7615 11.44C99.5655 11.8 100.183 12.316 100.615 12.988C101.047 13.66 101.263 14.458 101.263 15.382C101.263 16.306 101.047 17.104 100.615 17.776C100.183 18.436 99.5655 18.946 98.7615 19.306C97.9695 19.654 97.0155 19.828 95.8995 19.828H92.0115L93.0555 18.766V23.5H90.7155ZM98.9595 23.5L95.7735 18.928H98.2755L101.479 23.5H98.9595ZM93.0555 19.018L92.0115 17.902H95.7915C96.8235 17.902 97.5975 17.68 98.1135 17.236C98.6415 16.792 98.9055 16.174 98.9055 15.382C98.9055 14.578 98.6415 13.96 98.1135 13.528C97.5975 13.096 96.8235 12.88 95.7915 12.88H92.0115L93.0555 11.728V19.018ZM105.681 16.138H111.945V18.064H105.681V16.138ZM105.861 21.538H112.971V23.5H103.521V10.9H112.719V12.862H105.861V21.538Z" fill="white"/>
<path d="M43.7882 28.674C43.7541 28.3714 43.6135 28.1371 43.3663 27.9709C43.1192 27.8026 42.8081 27.7184 42.4331 27.7184C42.1646 27.7184 41.9324 27.761 41.7364 27.8462C41.5403 27.9293 41.388 28.0444 41.2793 28.1914C41.1728 28.3363 41.1195 28.5014 41.1195 28.6868C41.1195 28.8423 41.1557 28.9766 41.2282 29.0895C41.3028 29.2024 41.3997 29.2972 41.519 29.3739C41.6405 29.4485 41.7704 29.5114 41.9089 29.5625C42.0474 29.6115 42.1806 29.652 42.3084 29.6839L42.9477 29.8501C43.1565 29.9013 43.3706 29.9705 43.5901 30.0579C43.8095 30.1452 44.013 30.2603 44.2005 30.4031C44.388 30.5458 44.5393 30.7227 44.6543 30.9336C44.7715 31.1445 44.8301 31.397 44.8301 31.6911C44.8301 32.0618 44.7342 32.391 44.5425 32.6786C44.3528 32.9663 44.0769 33.1932 43.7147 33.3594C43.3546 33.5256 42.9189 33.6087 42.4075 33.6087C41.9175 33.6087 41.4935 33.5309 41.1355 33.3754C40.7776 33.2198 40.4974 32.9993 40.295 32.7138C40.0925 32.4261 39.9807 32.0852 39.9594 31.6911H40.9501C40.9693 31.9276 41.046 32.1246 41.1802 32.2823C41.3166 32.4379 41.4903 32.554 41.7012 32.6307C41.9143 32.7053 42.1476 32.7425 42.4011 32.7425C42.6802 32.7425 42.9285 32.6989 43.1458 32.6115C43.3653 32.522 43.5378 32.3984 43.6636 32.2408C43.7893 32.081 43.8521 31.8945 43.8521 31.6815C43.8521 31.4876 43.7967 31.3288 43.6859 31.2053C43.5773 31.0817 43.4292 30.9794 43.2417 30.8984C43.0563 30.8175 42.8464 30.7461 42.6121 30.6843L41.8386 30.4734C41.3145 30.3306 40.899 30.1207 40.5922 29.8438C40.2875 29.5668 40.1352 29.2003 40.1352 28.7443C40.1352 28.3672 40.2374 28.038 40.442 27.7567C40.6465 27.4755 40.9235 27.2571 41.2729 27.1016C41.6224 26.9439 42.0165 26.8651 42.4555 26.8651C42.8986 26.8651 43.2896 26.9428 43.6284 27.0984C43.9693 27.2539 44.2378 27.468 44.4338 27.7408C44.6298 28.0114 44.7321 28.3224 44.7406 28.674H43.7882ZM49.3102 28.674C49.2761 28.3714 49.1355 28.1371 48.8883 27.9709C48.6412 27.8026 48.3301 27.7184 47.9551 27.7184C47.6866 27.7184 47.4544 27.761 47.2583 27.8462C47.0623 27.9293 46.91 28.0444 46.8013 28.1914C46.6948 28.3363 46.6415 28.5014 46.6415 28.6868C46.6415 28.8423 46.6777 28.9766 46.7502 29.0895C46.8248 29.2024 46.9217 29.2972 47.041 29.3739C47.1625 29.4485 47.2924 29.5114 47.4309 29.5625C47.5694 29.6115 47.7026 29.652 47.8304 29.6839L48.4696 29.8501C48.6784 29.9013 48.8926 29.9705 49.112 30.0579C49.3315 30.1452 49.535 30.2603 49.7225 30.4031C49.91 30.5458 50.0613 30.7227 50.1763 30.9336C50.2935 31.1445 50.3521 31.397 50.3521 31.6911C50.3521 32.0618 50.2562 32.391 50.0645 32.6786C49.8748 32.9663 49.5989 33.1932 49.2367 33.3594C48.8766 33.5256 48.4409 33.6087 47.9295 33.6087C47.4395 33.6087 47.0155 33.5309 46.6575 33.3754C46.2995 33.2198 46.0194 32.9993 45.8169 32.7138C45.6145 32.4261 45.5027 32.0852 45.4814 31.6911H46.4721C46.4913 31.9276 46.568 32.1246 46.7022 32.2823C46.8386 32.4379 47.0123 32.554 47.2232 32.6307C47.4363 32.7053 47.6696 32.7425 47.9231 32.7425C48.2022 32.7425 48.4505 32.6989 48.6678 32.6115C48.8873 32.522 49.0598 32.3984 49.1856 32.2408C49.3113 32.081 49.3741 31.8945 49.3741 31.6815C49.3741 31.4876 49.3187 31.3288 49.2079 31.2053C49.0993 31.0817 48.9512 30.9794 48.7637 30.8984C48.5783 30.8175 48.3684 30.7461 48.1341 30.6843L47.3606 30.4734C46.8365 30.3306 46.421 30.1207 46.1142 29.8438C45.8095 29.5668 45.6571 29.2003 45.6571 28.7443C45.6571 28.3672 45.7594 28.038 45.964 27.7567C46.1685 27.4755 46.4455 27.2571 46.7949 27.1016C47.1444 26.9439 47.5385 26.8651 47.9775 26.8651C48.4206 26.8651 48.8116 26.9428 49.1504 27.0984C49.4913 27.2539 49.7598 27.468 49.9558 27.7408C50.1518 28.0114 50.2541 28.3224 50.2626 28.674H49.3102ZM51.2622 33.5V26.9545H52.2498V32.6499H55.2157V33.5H51.2622ZM58.1841 33.5V26.9545H62.2878V27.8047H59.1717V29.799H62.0737V30.646H59.1717V32.6499H62.3262V33.5H58.1841ZM68.62 26.9545V33.5H67.7124L64.3853 28.6996H64.3246V33.5H63.337V26.9545H64.2511L67.5813 31.7614H67.642V26.9545H68.62ZM75.2271 29.0831H74.2299C74.1916 28.87 74.1202 28.6825 74.0158 28.5206C73.9114 28.3587 73.7835 28.2212 73.6322 28.1083C73.481 27.9954 73.3116 27.9102 73.1241 27.8526C72.9387 27.7951 72.7416 27.7663 72.5328 27.7663C72.1557 27.7663 71.818 27.8612 71.5197 28.0508C71.2235 28.2404 70.9891 28.5185 70.8166 28.8849C70.6461 29.2514 70.5609 29.6989 70.5609 30.2273C70.5609 30.7599 70.6461 31.2095 70.8166 31.576C70.9891 31.9425 71.2246 32.2195 71.5229 32.407C71.8212 32.5945 72.1568 32.6882 72.5296 32.6882C72.7363 32.6882 72.9323 32.6605 73.1177 32.6051C73.3052 32.5476 73.4746 32.4634 73.6259 32.3526C73.7771 32.2418 73.905 32.1065 74.0094 31.9467C74.1159 31.7848 74.1894 31.5994 74.2299 31.3906L75.2271 31.3938C75.1738 31.7156 75.0705 32.0117 74.917 32.2823C74.7658 32.5508 74.5708 32.783 74.3322 32.979C74.0957 33.1729 73.8251 33.3232 73.5204 33.4297C73.2157 33.5362 72.8833 33.5895 72.5232 33.5895C71.9565 33.5895 71.4515 33.4553 71.0083 33.1868C70.5651 32.9162 70.2157 32.5295 69.96 32.0266C69.7065 31.5238 69.5797 30.924 69.5797 30.2273C69.5797 29.5284 69.7075 28.9286 69.9632 28.4279C70.2189 27.9251 70.5683 27.5394 71.0115 27.271C71.4547 27.0004 71.9586 26.8651 72.5232 26.8651C72.8705 26.8651 73.1944 26.9151 73.4948 27.0153C73.7974 27.1133 74.069 27.2582 74.3098 27.4499C74.5506 27.6396 74.7498 27.8718 74.9075 28.1467C75.0651 28.4194 75.1717 28.7315 75.2271 29.0831ZM76.1388 33.5V26.9545H78.4719C78.979 26.9545 79.3998 27.0419 79.7343 27.2166C80.071 27.3913 80.3224 27.6332 80.4886 27.9421C80.6548 28.2489 80.7379 28.6037 80.7379 29.0064C80.7379 29.407 80.6537 29.7596 80.4854 30.0643C80.3192 30.3668 80.0678 30.6023 79.7311 30.7706C79.3966 30.9389 78.9758 31.0231 78.4687 31.0231H76.7013V30.1729H78.3792C78.6988 30.1729 78.9588 30.1271 79.159 30.0355C79.3615 29.9439 79.5095 29.8107 79.6033 29.636C79.697 29.4613 79.7439 29.2514 79.7439 29.0064C79.7439 28.7592 79.696 28.5451 79.6001 28.364C79.5063 28.1829 79.3583 28.0444 79.1558 27.9485C78.9556 27.8505 78.6924 27.8015 78.3664 27.8015H77.1264V33.5H76.1388ZM79.37 30.5469L80.9872 33.5H79.8622L78.2769 30.5469H79.37ZM80.9273 26.9545H82.0491L83.759 29.93H83.8293L85.5392 26.9545H86.661L84.2863 30.9304V33.5H83.3019V30.9304L80.9273 26.9545ZM87.3234 33.5V26.9545H89.6565C90.1657 26.9545 90.5876 27.0472 90.9221 27.2326C91.2566 27.418 91.507 27.6715 91.6732 27.9933C91.8394 28.3129 91.9225 28.6729 91.9225 29.0735C91.9225 29.4762 91.8383 29.8384 91.67 30.1602C91.5038 30.4798 91.2524 30.7333 90.9157 30.9208C90.5812 31.1062 90.1604 31.1989 89.6533 31.1989H88.0489V30.3615H89.5638C89.8855 30.3615 90.1466 30.3061 90.3468 30.1953C90.5471 30.0824 90.6941 29.929 90.7879 29.7351C90.8816 29.5412 90.9285 29.3207 90.9285 29.0735C90.9285 28.8263 90.8816 28.6069 90.7879 28.4151C90.6941 28.2234 90.5461 28.0732 90.3436 27.9645C90.1434 27.8558 89.8792 27.8015 89.551 27.8015H88.311V33.5H87.3234ZM92.4874 27.8047V26.9545H97.5531V27.8047H95.5109V33.5H94.5265V27.8047H92.4874ZM99.3901 26.9545V33.5H98.4025V26.9545H99.3901ZM106.244 30.2273C106.244 30.9261 106.116 31.527 105.861 32.0298C105.605 32.5305 105.254 32.9162 104.809 33.1868C104.366 33.4553 103.862 33.5895 103.297 33.5895C102.731 33.5895 102.225 33.4553 101.779 33.1868C101.336 32.9162 100.987 32.5295 100.731 32.0266C100.475 31.5238 100.347 30.924 100.347 30.2273C100.347 29.5284 100.475 28.9286 100.731 28.4279C100.987 27.9251 101.336 27.5394 101.779 27.271C102.225 27.0004 102.731 26.8651 103.297 26.8651C103.862 26.8651 104.366 27.0004 104.809 27.271C105.254 27.5394 105.605 27.9251 105.861 28.4279C106.116 28.9286 106.244 29.5284 106.244 30.2273ZM105.266 30.2273C105.266 29.6946 105.18 29.2461 105.007 28.8817C104.837 28.5153 104.602 28.2383 104.304 28.0508C104.008 27.8612 103.672 27.7663 103.297 27.7663C102.92 27.7663 102.584 27.8612 102.287 28.0508C101.991 28.2383 101.757 28.5153 101.584 28.8817C101.414 29.2461 101.329 29.6946 101.329 30.2273C101.329 30.7599 101.414 31.2095 101.584 31.576C101.757 31.9403 101.991 32.2173 102.287 32.407C102.584 32.5945 102.92 32.6882 103.297 32.6882C103.672 32.6882 104.008 32.5945 104.304 32.407C104.602 32.2173 104.837 31.9403 105.007 31.576C105.18 31.2095 105.266 30.7599 105.266 30.2273ZM112.488 26.9545V33.5H111.581L108.254 28.6996H108.193V33.5H107.205V26.9545H108.119L111.45 31.7614H111.51V26.9545H112.488Z" fill="white"/>
</svg>
