<svg width="77" height="34" viewBox="0 0 77 34" fill="none" xmlns="http://www.w3.org/2000/svg">
<path d="M26.9968 26.8694H19.6507L17.45 16.9691C17.3452 16.5557 17.1776 15.7289 16.9575 14.4992C16.7689 13.4761 16.6012 12.4426 16.465 11.4092C16.3811 12.0809 16.2449 12.918 16.0563 13.9204C15.8676 14.9229 15.679 15.8426 15.5009 16.6797C15.3122 17.5168 14.5577 20.9168 13.2163 26.8797H5.87025L0.169434 4.1338H6.16368L8.66827 15.5326C9.23416 18.0542 9.6219 20.059 9.83148 21.5472C9.96772 20.4931 10.2087 19.0566 10.565 17.2378C10.9213 15.4189 11.2462 13.9204 11.5501 12.732L13.5831 4.1338H19.3363L21.3065 12.732C21.6418 14.1168 21.9876 15.7083 22.3335 17.5065C22.6793 19.315 22.9098 20.6584 23.0251 21.5472C23.1613 20.4001 23.5386 18.3952 24.1464 15.5636L26.6929 4.1338H32.6872L27.0283 26.8694H26.9968Z" fill="#EF4035"/>
<path d="M70.9483 26.8694H64.5977V9.1563H58.855V4.1338H76.67V9.1563H70.9483V26.8694Z" fill="#FF961B"/>
<path fill-rule="evenodd" clip-rule="evenodd" d="M45.7554 33.0699C36.2087 33.0699 28.4644 25.6705 28.4644 16.535C28.4644 7.39942 36.2087 3.05176e-05 45.7554 3.05176e-05C55.3022 3.05176e-05 63.0465 7.39942 63.0465 16.535C63.0465 25.6705 55.3022 33.0699 45.7554 33.0699ZM45.724 24.8438C49.79 24.8438 53.0806 21.1338 53.0806 16.566C53.0806 11.9982 49.79 8.28818 45.724 8.28818C41.658 8.28818 38.3674 11.9982 38.3674 16.566C38.3674 21.1338 41.658 24.8438 45.724 24.8438Z" fill="url(#paint0_linear_7711_19964)"/>
<path fill-rule="evenodd" clip-rule="evenodd" d="M60.5013 24.771C63.97 15.2324 57.9443 3.09992 46.113 4.38137C35.7698 5.50782 32.0915 20.999 42.77 23.965C31.337 17.599 48.3032 1.57043 54.8319 14.2093C61.2034 26.5485 48.9739 32.5011 39.71 32.3358C47.14 36.5522 58.3425 32.2944 60.5013 24.771Z" fill="url(#paint1_linear_7711_19964)"/>
<path fill-rule="evenodd" clip-rule="evenodd" d="M30.8538 26.5177C37.4034 34.6199 51.0896 35.3949 56.0568 23.9135C60.3953 13.8788 48.7631 2.50072 40.673 10.7269C52.1166 3.56516 57.3773 27.3755 42.989 26.7968C28.9465 26.2387 30.0364 11.9877 34.9407 3.59616C27.4375 8.20528 25.394 20.6478 30.8538 26.5177Z" fill="url(#paint2_linear_7711_19964)"/>
<defs>
<linearGradient id="paint0_linear_7711_19964" x1="63.1409" y1="1.03346" x2="30.0125" y2="33.5982" gradientUnits="userSpaceOnUse">
<stop stop-color="#5CE379"/>
<stop offset="1" stop-color="#347A44"/>
</linearGradient>
<linearGradient id="paint1_linear_7711_19964" x1="29.235" y1="13.2117" x2="66.175" y2="24.1877" gradientUnits="userSpaceOnUse">
<stop stop-color="#347A44"/>
<stop offset="1" stop-color="#5CE379"/>
</linearGradient>
<linearGradient id="paint2_linear_7711_19964" x1="56.5154" y1="3.4275" x2="27.8312" y2="32.6511" gradientUnits="userSpaceOnUse">
<stop stop-color="#347A44"/>
<stop offset="1" stop-color="#5CE379"/>
</linearGradient>
</defs>
</svg>
